<mxfile host="infai.gitlab.io" modified="2025-01-12T15:07:42.870Z" agent="Mozilla/5.0 (X11; Ubuntu; Linux x86_64; rv:133.0) Gecko/20100101 Firefox/133.0" etag="FbxPbIPlOlYdj8teT6RG" version="23.1.6" type="device">
  <diagram name="Page-1" id="vZLLGKR_N9Wcjz-cbTaC">
    <mxGraphModel dx="2613" dy="2671" grid="1" gridSize="10" guides="1" tooltips="1" connect="1" arrows="1" fold="1" page="1" pageScale="1" pageWidth="690" pageHeight="980" background="none" math="0" shadow="0">
      <root>
        <mxCell id="0" />
        <mxCell id="1" parent="0" />
        <UserObject label=":ben-oda" id="nKvTLelhxwqPHLfkCT0D-1">
          <mxCell style="swimlane;whiteSpace=wrap;collapsible=1;childLayout=stackLayout;swimlaneFillColor=default;resizeParent=1;resizeLast=0;resizeParentMax=0;marginBottom=10;marginTop=10;marginRight=10;marginLeft=10;spacingLeft=5;spacingRight=5;fontStyle=0;startSize=30;points=[];html=1;shadow=1;perimeterSpacing=3;spacingLeft=10;spacingRight=10;allowArrows=1;rotatable=0;whiteSpace=wrap;fontSize=14;horizontal=1;horizontalStack=0;labelBackgroundColor=none;rounded=0;fillColor=#ffcccc;strokeColor=#36393d;" parent="1" vertex="1">
            <mxGeometry x="1335" y="1380" width="200" height="110" as="geometry" />
          </mxCell>
        </UserObject>
        <UserObject label="a crm:E21_Person" id="nKvTLelhxwqPHLfkCT0D-2">
          <mxCell style="points=[];html=1;shadow=1;perimeterSpacing=3;spacingLeft=10;spacingRight=10;allowArrows=1;rotatable=0;whiteSpace=wrap;fontSize=14;labelBackgroundColor=none;rounded=0;" parent="nKvTLelhxwqPHLfkCT0D-1" vertex="1">
            <mxGeometry x="10" y="40" width="180" height="30" as="geometry" />
          </mxCell>
        </UserObject>
        <UserObject label="rdfs:label &quot;Ben Oda&quot;" id="ogyGV-CLIjV5AEfVGZi5-8">
          <mxCell style="points=[];html=1;shadow=1;perimeterSpacing=3;spacingLeft=10;spacingRight=10;allowArrows=1;rotatable=0;whiteSpace=wrap;fontSize=14;labelBackgroundColor=none;rounded=0;" parent="nKvTLelhxwqPHLfkCT0D-1" vertex="1">
            <mxGeometry x="10" y="70" width="180" height="30" as="geometry" />
          </mxCell>
        </UserObject>
        <UserObject label=":ben-oda-death" id="nKvTLelhxwqPHLfkCT0D-16">
          <mxCell style="swimlane;whiteSpace=wrap;collapsible=1;childLayout=stackLayout;swimlaneFillColor=default;resizeParent=1;resizeLast=0;resizeParentMax=0;marginBottom=10;marginTop=10;marginRight=10;marginLeft=10;spacingLeft=5;spacingRight=5;fontStyle=0;startSize=30;points=[];html=1;shadow=1;perimeterSpacing=3;spacingLeft=10;spacingRight=10;allowArrows=1;rotatable=0;whiteSpace=wrap;fontSize=14;horizontal=1;horizontalStack=0;labelBackgroundColor=none;rounded=0;fillColor=#F2DCF7;strokeColor=#36393d;" parent="1" vertex="1" collapsed="1">
            <mxGeometry x="1680" y="1490" width="150" height="30" as="geometry">
              <mxRectangle x="1725" y="1490" width="280" height="140" as="alternateBounds" />
            </mxGeometry>
          </mxCell>
        </UserObject>
        <UserObject label="a crm:E69_Death" id="nKvTLelhxwqPHLfkCT0D-17">
          <mxCell style="points=[];html=1;shadow=1;perimeterSpacing=3;spacingLeft=10;spacingRight=10;allowArrows=1;rotatable=0;whiteSpace=wrap;fontSize=14;labelBackgroundColor=none;rounded=0;" parent="nKvTLelhxwqPHLfkCT0D-16" vertex="1">
            <mxGeometry x="10" y="40" width="260" height="30" as="geometry" />
          </mxCell>
        </UserObject>
        <UserObject label="crm:P4_has_time-span :1984-11-28" id="nKvTLelhxwqPHLfkCT0D-21">
          <mxCell style="points=[];html=1;shadow=1;perimeterSpacing=3;spacingLeft=10;spacingRight=10;allowArrows=1;rotatable=0;whiteSpace=wrap;fontSize=14;labelBackgroundColor=none;rounded=0;" parent="nKvTLelhxwqPHLfkCT0D-16" vertex="1">
            <mxGeometry x="10" y="70" width="260" height="30" as="geometry" />
          </mxCell>
        </UserObject>
        <UserObject label="crm:P7_took_place_at gn:5097672" id="nKvTLelhxwqPHLfkCT0D-22">
          <mxCell style="points=[];html=1;shadow=1;perimeterSpacing=3;spacingLeft=10;spacingRight=10;allowArrows=1;rotatable=0;whiteSpace=wrap;fontSize=14;labelBackgroundColor=none;rounded=0;" parent="nKvTLelhxwqPHLfkCT0D-16" vertex="1">
            <mxGeometry x="10" y="100" width="260" height="30" as="geometry" />
          </mxCell>
        </UserObject>
        <UserObject label="crm:P100i_died_in" id="nKvTLelhxwqPHLfkCT0D-25">
          <mxCell style="html=1;edgeStyle=elbowEdgeStyle;rounded=0;orthogonalLoop=1;jettySize=auto;endArrow=block;endFill=1;endSize=5;spacingBottom=20;shadow=1;fontSize=14;labelBackgroundColor=default;fontColor=default;" parent="1" source="nKvTLelhxwqPHLfkCT0D-1" target="nKvTLelhxwqPHLfkCT0D-16" edge="1">
            <mxGeometry x="-0.0718" relative="1" as="geometry">
              <mxPoint x="1545" y="1430" as="sourcePoint" />
              <mxPoint x="1659" y="1430" as="targetPoint" />
              <Array as="points">
                <mxPoint x="1600" y="1435" />
              </Array>
              <mxPoint y="1" as="offset" />
            </mxGeometry>
          </mxCell>
        </UserObject>
        <UserObject label=":ben-oda-birth" id="nKvTLelhxwqPHLfkCT0D-26">
          <mxCell style="swimlane;whiteSpace=wrap;collapsible=1;childLayout=stackLayout;swimlaneFillColor=default;resizeParent=1;resizeLast=0;resizeParentMax=0;marginBottom=10;marginTop=10;marginRight=10;marginLeft=10;spacingLeft=5;spacingRight=5;fontStyle=0;startSize=30;points=[];html=1;shadow=1;perimeterSpacing=3;spacingLeft=10;spacingRight=10;allowArrows=1;rotatable=0;whiteSpace=wrap;fontSize=14;horizontal=1;horizontalStack=0;labelBackgroundColor=none;rounded=0;fillColor=#F2DCF7;strokeColor=#36393d;" parent="1" vertex="1" collapsed="1">
            <mxGeometry x="1680" y="1320" width="150" height="30" as="geometry">
              <mxRectangle x="1680" y="1320" width="280" height="140" as="alternateBounds" />
            </mxGeometry>
          </mxCell>
        </UserObject>
        <UserObject label="a crm:E67_Birth" id="nKvTLelhxwqPHLfkCT0D-27">
          <mxCell style="points=[];html=1;shadow=1;perimeterSpacing=3;spacingLeft=10;spacingRight=10;allowArrows=1;rotatable=0;whiteSpace=wrap;fontSize=14;labelBackgroundColor=none;rounded=0;" parent="nKvTLelhxwqPHLfkCT0D-26" vertex="1">
            <mxGeometry x="10" y="40" width="260" height="30" as="geometry" />
          </mxCell>
        </UserObject>
        <UserObject label="crm:P4_has_time-span :1915-12-21" id="nKvTLelhxwqPHLfkCT0D-28">
          <mxCell style="points=[];html=1;shadow=1;perimeterSpacing=3;spacingLeft=10;spacingRight=10;allowArrows=1;rotatable=0;whiteSpace=wrap;fontSize=14;labelBackgroundColor=none;rounded=0;" parent="nKvTLelhxwqPHLfkCT0D-26" vertex="1">
            <mxGeometry x="10" y="70" width="260" height="30" as="geometry" />
          </mxCell>
        </UserObject>
        <UserObject label="crm:P7_took_place_at gn:5392114" id="nKvTLelhxwqPHLfkCT0D-29">
          <mxCell style="points=[];html=1;shadow=1;perimeterSpacing=3;spacingLeft=10;spacingRight=10;allowArrows=1;rotatable=0;whiteSpace=wrap;fontSize=14;labelBackgroundColor=none;rounded=0;" parent="nKvTLelhxwqPHLfkCT0D-26" vertex="1">
            <mxGeometry x="10" y="100" width="260" height="30" as="geometry" />
          </mxCell>
        </UserObject>
        <UserObject label="crm:P98i_was_born" id="ogyGV-CLIjV5AEfVGZi5-1">
          <mxCell style="html=1;edgeStyle=elbowEdgeStyle;rounded=0;orthogonalLoop=1;jettySize=auto;endArrow=block;endFill=1;endSize=5;spacingBottom=20;shadow=1;fontSize=14;labelBackgroundColor=default;fontColor=default;" parent="1" source="nKvTLelhxwqPHLfkCT0D-1" target="nKvTLelhxwqPHLfkCT0D-26" edge="1">
            <mxGeometry x="-0.0209" relative="1" as="geometry">
              <mxPoint x="1815" y="1490" as="sourcePoint" />
              <mxPoint x="1929" y="1490" as="targetPoint" />
              <Array as="points">
                <mxPoint x="1600" y="1435" />
              </Array>
              <mxPoint y="-1" as="offset" />
            </mxGeometry>
          </mxCell>
        </UserObject>
        <UserObject id="ogyGV-CLIjV5AEfVGZi5-2">
          <mxCell style="swimlane;whiteSpace=wrap;collapsible=1;childLayout=stackLayout;swimlaneFillColor=default;resizeParent=1;resizeLast=0;resizeParentMax=0;marginBottom=10;marginTop=10;marginRight=10;marginLeft=10;spacingLeft=5;spacingRight=5;fontStyle=0;startSize=0;points=[];html=1;shadow=1;perimeterSpacing=3;spacingLeft=10;spacingRight=10;allowArrows=1;rotatable=0;whiteSpace=wrap;fontSize=14;horizontalStack=0;rounded=0;labelBackgroundColor=none;" parent="1" vertex="1">
            <mxGeometry x="1335" y="1590" width="200" height="140" as="geometry" />
          </mxCell>
        </UserObject>
        <UserObject label=":ben-oda-n1" id="ogyGV-CLIjV5AEfVGZi5-9">
          <mxCell style="swimlane;whiteSpace=wrap;collapsible=1;childLayout=stackLayout;swimlaneFillColor=default;resizeParent=1;resizeLast=0;resizeParentMax=0;marginBottom=10;marginTop=10;marginRight=10;marginLeft=10;spacingLeft=5;spacingRight=5;fontStyle=0;startSize=30;points=[];html=1;shadow=1;perimeterSpacing=3;spacingLeft=10;spacingRight=10;allowArrows=1;rotatable=0;whiteSpace=wrap;fontSize=14;horizontal=1;horizontalStack=0;rounded=0;labelBackgroundColor=none;" parent="ogyGV-CLIjV5AEfVGZi5-2" vertex="1" collapsed="1">
            <mxGeometry x="10" y="10" width="180" height="30" as="geometry">
              <mxRectangle x="10" y="10" width="180" height="160" as="alternateBounds" />
            </mxGeometry>
          </mxCell>
        </UserObject>
        <UserObject label="a lrmoo:F12_Nomen" id="ogyGV-CLIjV5AEfVGZi5-10">
          <mxCell style="points=[];html=1;shadow=1;perimeterSpacing=3;spacingLeft=10;spacingRight=10;allowArrows=1;rotatable=0;whiteSpace=wrap;fontSize=14;rounded=0;labelBackgroundColor=none;" parent="ogyGV-CLIjV5AEfVGZi5-9" vertex="1">
            <mxGeometry x="10" y="40" width="160" height="30" as="geometry" />
          </mxCell>
        </UserObject>
        <UserObject label="crm:P2_has_type aat:300266386" id="ogyGV-CLIjV5AEfVGZi5-11">
          <mxCell style="points=[];html=1;shadow=1;perimeterSpacing=3;spacingLeft=10;spacingRight=10;allowArrows=1;rotatable=0;whiteSpace=wrap;fontSize=14;rounded=0;labelBackgroundColor=none;" parent="ogyGV-CLIjV5AEfVGZi5-9" vertex="1">
            <mxGeometry x="10" y="70" width="160" height="40" as="geometry" />
          </mxCell>
        </UserObject>
        <UserObject label="lrmoo:R33_has_string &quot;Ben Oda&quot;" id="bgf9_nDrxLFxw-tNaPST-6">
          <mxCell style="points=[];html=1;shadow=1;perimeterSpacing=3;spacingLeft=10;spacingRight=10;allowArrows=1;rotatable=0;whiteSpace=wrap;fontSize=14;rounded=0;labelBackgroundColor=none;" parent="ogyGV-CLIjV5AEfVGZi5-9" vertex="1">
            <mxGeometry x="10" y="110" width="160" height="40" as="geometry" />
          </mxCell>
        </UserObject>
        <UserObject label=":ben-oda-n2" id="bgf9_nDrxLFxw-tNaPST-12">
          <mxCell style="swimlane;whiteSpace=wrap;collapsible=1;childLayout=stackLayout;swimlaneFillColor=default;resizeParent=1;resizeLast=0;resizeParentMax=0;marginBottom=10;marginTop=10;marginRight=10;marginLeft=10;spacingLeft=5;spacingRight=5;fontStyle=0;startSize=30;points=[];html=1;shadow=1;perimeterSpacing=3;spacingLeft=10;spacingRight=10;allowArrows=1;rotatable=0;whiteSpace=wrap;fontSize=14;horizontal=1;horizontalStack=0;rounded=0;labelBackgroundColor=none;" parent="ogyGV-CLIjV5AEfVGZi5-2" vertex="1" collapsed="1">
            <mxGeometry x="10" y="40" width="180" height="30" as="geometry">
              <mxRectangle x="10" y="40" width="180" height="160" as="alternateBounds" />
            </mxGeometry>
          </mxCell>
        </UserObject>
        <UserObject label="a lrmoo:F12_Nomen" id="bgf9_nDrxLFxw-tNaPST-13">
          <mxCell style="points=[];html=1;shadow=1;perimeterSpacing=3;spacingLeft=10;spacingRight=10;allowArrows=1;rotatable=0;whiteSpace=wrap;fontSize=14;rounded=0;labelBackgroundColor=none;" parent="bgf9_nDrxLFxw-tNaPST-12" vertex="1">
            <mxGeometry x="10" y="40" width="160" height="30" as="geometry" />
          </mxCell>
        </UserObject>
        <UserObject label="crm:P2_has_type aat:300404681" id="bgf9_nDrxLFxw-tNaPST-14">
          <mxCell style="points=[];html=1;shadow=1;perimeterSpacing=3;spacingLeft=10;spacingRight=10;allowArrows=1;rotatable=0;whiteSpace=wrap;fontSize=14;rounded=0;labelBackgroundColor=none;" parent="bgf9_nDrxLFxw-tNaPST-12" vertex="1">
            <mxGeometry x="10" y="70" width="160" height="40" as="geometry" />
          </mxCell>
        </UserObject>
        <UserObject label="lrmoo:R33_has_string &quot;Ben Kazuhito Oda&quot;" id="bgf9_nDrxLFxw-tNaPST-15">
          <mxCell style="points=[];html=1;shadow=1;perimeterSpacing=3;spacingLeft=10;spacingRight=10;allowArrows=1;rotatable=0;whiteSpace=wrap;fontSize=14;rounded=0;labelBackgroundColor=none;" parent="bgf9_nDrxLFxw-tNaPST-12" vertex="1">
            <mxGeometry x="10" y="110" width="160" height="40" as="geometry" />
          </mxCell>
        </UserObject>
        <UserObject label=":ben-oda-n3" id="bgf9_nDrxLFxw-tNaPST-16">
          <mxCell style="swimlane;whiteSpace=wrap;collapsible=1;childLayout=stackLayout;swimlaneFillColor=default;resizeParent=1;resizeLast=0;resizeParentMax=0;marginBottom=10;marginTop=10;marginRight=10;marginLeft=10;spacingLeft=5;spacingRight=5;fontStyle=0;startSize=30;points=[];html=1;shadow=1;perimeterSpacing=3;spacingLeft=10;spacingRight=10;allowArrows=1;rotatable=0;whiteSpace=wrap;fontSize=14;horizontal=1;horizontalStack=0;rounded=0;labelBackgroundColor=none;" parent="ogyGV-CLIjV5AEfVGZi5-2" vertex="1" collapsed="1">
            <mxGeometry x="10" y="70" width="180" height="30" as="geometry">
              <mxRectangle x="10" y="70" width="180" height="160" as="alternateBounds" />
            </mxGeometry>
          </mxCell>
        </UserObject>
        <UserObject label="a lrmoo:F12_Nomen" id="bgf9_nDrxLFxw-tNaPST-17">
          <mxCell style="points=[];html=1;shadow=1;perimeterSpacing=3;spacingLeft=10;spacingRight=10;allowArrows=1;rotatable=0;whiteSpace=wrap;fontSize=14;rounded=0;labelBackgroundColor=none;" parent="bgf9_nDrxLFxw-tNaPST-16" vertex="1">
            <mxGeometry x="10" y="40" width="160" height="30" as="geometry" />
          </mxCell>
        </UserObject>
        <UserObject label="crm:P2_has_type aat:300404651" id="bgf9_nDrxLFxw-tNaPST-18">
          <mxCell style="points=[];html=1;shadow=1;perimeterSpacing=3;spacingLeft=10;spacingRight=10;allowArrows=1;rotatable=0;whiteSpace=wrap;fontSize=14;rounded=0;labelBackgroundColor=none;" parent="bgf9_nDrxLFxw-tNaPST-16" vertex="1">
            <mxGeometry x="10" y="70" width="160" height="40" as="geometry" />
          </mxCell>
        </UserObject>
        <UserObject label="lrmoo:R33_has_string &quot;Ben&quot;" id="bgf9_nDrxLFxw-tNaPST-19">
          <mxCell style="points=[];html=1;shadow=1;perimeterSpacing=3;spacingLeft=10;spacingRight=10;allowArrows=1;rotatable=0;whiteSpace=wrap;fontSize=14;rounded=0;labelBackgroundColor=none;" parent="bgf9_nDrxLFxw-tNaPST-16" vertex="1">
            <mxGeometry x="10" y="110" width="160" height="40" as="geometry" />
          </mxCell>
        </UserObject>
        <UserObject label=":ben-oda-n4" id="bgf9_nDrxLFxw-tNaPST-20">
          <mxCell style="swimlane;whiteSpace=wrap;collapsible=1;childLayout=stackLayout;swimlaneFillColor=default;resizeParent=1;resizeLast=0;resizeParentMax=0;marginBottom=10;marginTop=10;marginRight=10;marginLeft=10;spacingLeft=5;spacingRight=5;fontStyle=0;startSize=30;points=[];html=1;shadow=1;perimeterSpacing=3;spacingLeft=10;spacingRight=10;allowArrows=1;rotatable=0;whiteSpace=wrap;fontSize=14;horizontal=1;horizontalStack=0;rounded=0;labelBackgroundColor=none;" parent="ogyGV-CLIjV5AEfVGZi5-2" vertex="1" collapsed="1">
            <mxGeometry x="10" y="100" width="180" height="30" as="geometry">
              <mxRectangle x="10" y="100" width="180" height="160" as="alternateBounds" />
            </mxGeometry>
          </mxCell>
        </UserObject>
        <UserObject label="a lrmoo:F12_Nomen" id="bgf9_nDrxLFxw-tNaPST-21">
          <mxCell style="points=[];html=1;shadow=1;perimeterSpacing=3;spacingLeft=10;spacingRight=10;allowArrows=1;rotatable=0;whiteSpace=wrap;fontSize=14;rounded=0;labelBackgroundColor=none;" parent="bgf9_nDrxLFxw-tNaPST-20" vertex="1">
            <mxGeometry x="10" y="40" width="160" height="30" as="geometry" />
          </mxCell>
        </UserObject>
        <UserObject label="crm:P2_has_type aat:300404652" id="bgf9_nDrxLFxw-tNaPST-22">
          <mxCell style="points=[];html=1;shadow=1;perimeterSpacing=3;spacingLeft=10;spacingRight=10;allowArrows=1;rotatable=0;whiteSpace=wrap;fontSize=14;rounded=0;labelBackgroundColor=none;" parent="bgf9_nDrxLFxw-tNaPST-20" vertex="1">
            <mxGeometry x="10" y="70" width="160" height="40" as="geometry" />
          </mxCell>
        </UserObject>
        <UserObject label="lrmoo:R33_has_string &quot;Oda&quot;" id="bgf9_nDrxLFxw-tNaPST-23">
          <mxCell style="points=[];html=1;shadow=1;perimeterSpacing=3;spacingLeft=10;spacingRight=10;allowArrows=1;rotatable=0;whiteSpace=wrap;fontSize=14;rounded=0;labelBackgroundColor=none;" parent="bgf9_nDrxLFxw-tNaPST-20" vertex="1">
            <mxGeometry x="10" y="110" width="160" height="40" as="geometry" />
          </mxCell>
        </UserObject>
        <UserObject label="&lt;span style=&quot;background-color: rgb(255, 255, 255);&quot;&gt;crm:P67i_is_referred_to_by&lt;/span&gt;" id="ogyGV-CLIjV5AEfVGZi5-5">
          <mxCell style="html=1;edgeStyle=elbowEdgeStyle;rounded=0;orthogonalLoop=1;jettySize=auto;endArrow=block;endFill=1;endSize=5;spacingBottom=20;shadow=1;fontSize=14;labelBackgroundColor=none;fontColor=default;" parent="1" source="nKvTLelhxwqPHLfkCT0D-1" target="ogyGV-CLIjV5AEfVGZi5-2" edge="1">
            <mxGeometry relative="1" as="geometry">
              <mxPoint x="1815" y="1420" as="sourcePoint" />
              <mxPoint x="1929" y="1420" as="targetPoint" />
            </mxGeometry>
          </mxCell>
        </UserObject>
        <UserObject label=":editing-2" id="bgf9_nDrxLFxw-tNaPST-24">
          <mxCell style="swimlane;whiteSpace=wrap;collapsible=1;childLayout=stackLayout;swimlaneFillColor=default;resizeParent=1;resizeLast=0;resizeParentMax=0;marginBottom=10;marginTop=10;marginRight=10;marginLeft=10;spacingLeft=5;spacingRight=5;fontStyle=0;startSize=30;points=[];html=1;shadow=1;perimeterSpacing=3;spacingLeft=10;spacingRight=10;allowArrows=1;rotatable=0;whiteSpace=wrap;fontSize=14;horizontal=1;horizontalStack=0;rounded=0;labelBackgroundColor=none;fillColor=#cce5ff;strokeColor=#36393d;" parent="1" vertex="1" collapsed="1">
            <mxGeometry x="575" y="1140" width="130" height="30" as="geometry">
              <mxRectangle x="575" y="840" width="270" height="120" as="alternateBounds" />
            </mxGeometry>
          </mxCell>
        </UserObject>
        <UserObject label="a crm:PC14_carried_out_by" id="bgf9_nDrxLFxw-tNaPST-25">
          <mxCell style="points=[];html=1;shadow=1;perimeterSpacing=3;spacingLeft=10;spacingRight=10;allowArrows=1;rotatable=0;whiteSpace=wrap;fontSize=14;rounded=0;labelBackgroundColor=none;" parent="bgf9_nDrxLFxw-tNaPST-24" vertex="1">
            <mxGeometry x="10" y="40" width="250" height="30" as="geometry" />
          </mxCell>
        </UserObject>
        <UserObject label="crm:P14.1_in_the_role_of aat:300025526" id="bgf9_nDrxLFxw-tNaPST-29">
          <mxCell style="points=[];html=1;shadow=1;perimeterSpacing=3;spacingLeft=10;spacingRight=10;allowArrows=1;rotatable=0;whiteSpace=wrap;fontSize=14;rounded=0;labelBackgroundColor=none;" parent="bgf9_nDrxLFxw-tNaPST-24" vertex="1">
            <mxGeometry x="10" y="70" width="250" height="40" as="geometry" />
          </mxCell>
        </UserObject>
        <UserObject label=":joe-simon" id="bgf9_nDrxLFxw-tNaPST-32">
          <mxCell style="swimlane;whiteSpace=wrap;collapsible=1;childLayout=stackLayout;swimlaneFillColor=default;resizeParent=1;resizeLast=0;resizeParentMax=0;marginBottom=10;marginTop=10;marginRight=10;marginLeft=10;spacingLeft=5;spacingRight=5;fontStyle=0;startSize=30;points=[];html=1;shadow=1;perimeterSpacing=3;spacingLeft=10;spacingRight=10;allowArrows=1;rotatable=0;whiteSpace=wrap;fontSize=14;horizontal=1;horizontalStack=0;labelBackgroundColor=none;rounded=0;fillColor=#ffcccc;strokeColor=#36393d;" parent="1" vertex="1">
            <mxGeometry x="685" y="1380" width="200" height="110" as="geometry">
              <mxRectangle x="580" y="320" width="120" height="30" as="alternateBounds" />
            </mxGeometry>
          </mxCell>
        </UserObject>
        <UserObject label="a crm:E21_Person" id="bgf9_nDrxLFxw-tNaPST-33">
          <mxCell style="points=[];html=1;shadow=1;perimeterSpacing=3;spacingLeft=10;spacingRight=10;allowArrows=1;rotatable=0;whiteSpace=wrap;fontSize=14;labelBackgroundColor=none;rounded=0;" parent="bgf9_nDrxLFxw-tNaPST-32" vertex="1">
            <mxGeometry x="10" y="40" width="180" height="30" as="geometry" />
          </mxCell>
        </UserObject>
        <UserObject label="rdfs:label &quot;Joe Simon&quot;" id="bgf9_nDrxLFxw-tNaPST-34">
          <mxCell style="points=[];html=1;shadow=1;perimeterSpacing=3;spacingLeft=10;spacingRight=10;allowArrows=1;rotatable=0;whiteSpace=wrap;fontSize=14;labelBackgroundColor=none;rounded=0;" parent="bgf9_nDrxLFxw-tNaPST-32" vertex="1">
            <mxGeometry x="10" y="70" width="180" height="30" as="geometry" />
          </mxCell>
        </UserObject>
        <UserObject label="crm:P02_has_range" id="bgf9_nDrxLFxw-tNaPST-37">
          <mxCell style="html=1;edgeStyle=elbowEdgeStyle;rounded=0;orthogonalLoop=1;jettySize=auto;endArrow=block;endFill=1;endSize=5;spacingBottom=20;shadow=1;fontSize=14;elbow=vertical;labelBackgroundColor=default;fontColor=default;" parent="1" source="bgf9_nDrxLFxw-tNaPST-24" target="bgf9_nDrxLFxw-tNaPST-32" edge="1">
            <mxGeometry x="0.4441" relative="1" as="geometry">
              <mxPoint x="755" y="1550" as="sourcePoint" />
              <mxPoint x="869" y="1550" as="targetPoint" />
              <Array as="points">
                <mxPoint x="785" y="1280" />
              </Array>
              <mxPoint as="offset" />
            </mxGeometry>
          </mxCell>
        </UserObject>
        <UserObject label=":issue-editing" id="bgf9_nDrxLFxw-tNaPST-38">
          <mxCell style="swimlane;whiteSpace=wrap;collapsible=1;childLayout=stackLayout;swimlaneFillColor=default;resizeParent=1;resizeLast=0;resizeParentMax=0;marginBottom=10;marginTop=10;marginRight=10;marginLeft=10;spacingLeft=5;spacingRight=5;fontStyle=0;startSize=30;points=[];html=1;shadow=1;perimeterSpacing=3;spacingLeft=10;spacingRight=10;allowArrows=1;rotatable=0;whiteSpace=wrap;fontSize=14;horizontal=1;horizontalStack=0;rounded=0;labelBackgroundColor=none;fillColor=#F2DCF7;strokeColor=#36393d;" parent="1" vertex="1">
            <mxGeometry x="345" y="910" width="255" height="80" as="geometry">
              <mxRectangle x="345" y="640" width="255" height="30" as="alternateBounds" />
            </mxGeometry>
          </mxCell>
        </UserObject>
        <UserObject label="a lrmoo:F28_Expression_Creation" id="bgf9_nDrxLFxw-tNaPST-39">
          <mxCell style="points=[];html=1;shadow=1;perimeterSpacing=3;spacingLeft=10;spacingRight=10;allowArrows=1;rotatable=0;whiteSpace=wrap;fontSize=14;rounded=0;labelBackgroundColor=none;" parent="bgf9_nDrxLFxw-tNaPST-38" vertex="1">
            <mxGeometry x="10" y="40" width="235" height="30" as="geometry" />
          </mxCell>
        </UserObject>
        <UserObject label="&lt;span style=&quot;color: transparent;&quot;&gt;crm:P01_has_domain&lt;/span&gt;" id="bgf9_nDrxLFxw-tNaPST-40">
          <mxCell style="html=1;edgeStyle=elbowEdgeStyle;rounded=0;orthogonalLoop=1;jettySize=auto;endArrow=block;endFill=1;endSize=5;spacingBottom=20;shadow=1;fontSize=14;elbow=vertical;labelBackgroundColor=none;fontColor=default;" parent="1" source="bgf9_nDrxLFxw-tNaPST-24" target="bgf9_nDrxLFxw-tNaPST-38" edge="1">
            <mxGeometry x="-0.5375" y="-5" relative="1" as="geometry">
              <mxPoint x="370" y="720" as="sourcePoint" />
              <mxPoint x="484" y="720" as="targetPoint" />
              <Array as="points">
                <mxPoint x="640" y="1080" />
              </Array>
              <mxPoint x="6" y="5" as="offset" />
            </mxGeometry>
          </mxCell>
        </UserObject>
        <UserObject id="bgf9_nDrxLFxw-tNaPST-41">
          <mxCell style="swimlane;whiteSpace=wrap;collapsible=1;childLayout=stackLayout;swimlaneFillColor=default;resizeParent=1;resizeLast=0;resizeParentMax=0;marginBottom=10;marginTop=10;marginRight=10;marginLeft=10;spacingLeft=5;spacingRight=5;fontStyle=0;startSize=0;points=[];html=1;shadow=1;perimeterSpacing=3;spacingLeft=10;spacingRight=10;allowArrows=1;rotatable=0;whiteSpace=wrap;fontSize=14;horizontalStack=0;rounded=0;labelBackgroundColor=none;" parent="1" vertex="1">
            <mxGeometry x="685" y="1590" width="200" height="140" as="geometry" />
          </mxCell>
        </UserObject>
        <UserObject label=":joe-simon-n1" id="bgf9_nDrxLFxw-tNaPST-42">
          <mxCell style="swimlane;whiteSpace=wrap;collapsible=1;childLayout=stackLayout;swimlaneFillColor=default;resizeParent=1;resizeLast=0;resizeParentMax=0;marginBottom=10;marginTop=10;marginRight=10;marginLeft=10;spacingLeft=5;spacingRight=5;fontStyle=0;startSize=30;points=[];html=1;shadow=1;perimeterSpacing=3;spacingLeft=10;spacingRight=10;allowArrows=1;rotatable=0;whiteSpace=wrap;fontSize=14;horizontal=1;horizontalStack=0;rounded=0;labelBackgroundColor=none;" parent="bgf9_nDrxLFxw-tNaPST-41" vertex="1" collapsed="1">
            <mxGeometry x="10" y="10" width="180" height="30" as="geometry">
              <mxRectangle x="10" y="10" width="180" height="160" as="alternateBounds" />
            </mxGeometry>
          </mxCell>
        </UserObject>
        <UserObject label="a lrmoo:F12_Nomen" id="bgf9_nDrxLFxw-tNaPST-43">
          <mxCell style="points=[];html=1;shadow=1;perimeterSpacing=3;spacingLeft=10;spacingRight=10;allowArrows=1;rotatable=0;whiteSpace=wrap;fontSize=14;rounded=0;labelBackgroundColor=none;" parent="bgf9_nDrxLFxw-tNaPST-42" vertex="1">
            <mxGeometry x="10" y="40" width="160" height="30" as="geometry" />
          </mxCell>
        </UserObject>
        <UserObject label="crm:P2_has_type aat:300266386" id="bgf9_nDrxLFxw-tNaPST-44">
          <mxCell style="points=[];html=1;shadow=1;perimeterSpacing=3;spacingLeft=10;spacingRight=10;allowArrows=1;rotatable=0;whiteSpace=wrap;fontSize=14;rounded=0;labelBackgroundColor=none;" parent="bgf9_nDrxLFxw-tNaPST-42" vertex="1">
            <mxGeometry x="10" y="70" width="160" height="40" as="geometry" />
          </mxCell>
        </UserObject>
        <UserObject label="lrmoo:R33_has_string &quot;Joe Simon&quot;" id="bgf9_nDrxLFxw-tNaPST-45">
          <mxCell style="points=[];html=1;shadow=1;perimeterSpacing=3;spacingLeft=10;spacingRight=10;allowArrows=1;rotatable=0;whiteSpace=wrap;fontSize=14;rounded=0;labelBackgroundColor=none;" parent="bgf9_nDrxLFxw-tNaPST-42" vertex="1">
            <mxGeometry x="10" y="110" width="160" height="40" as="geometry" />
          </mxCell>
        </UserObject>
        <UserObject label=":joe-simon-n2" id="bgf9_nDrxLFxw-tNaPST-46">
          <mxCell style="swimlane;whiteSpace=wrap;collapsible=1;childLayout=stackLayout;swimlaneFillColor=default;resizeParent=1;resizeLast=0;resizeParentMax=0;marginBottom=10;marginTop=10;marginRight=10;marginLeft=10;spacingLeft=5;spacingRight=5;fontStyle=0;startSize=30;points=[];html=1;shadow=1;perimeterSpacing=3;spacingLeft=10;spacingRight=10;allowArrows=1;rotatable=0;whiteSpace=wrap;fontSize=14;horizontal=1;horizontalStack=0;rounded=0;labelBackgroundColor=none;" parent="bgf9_nDrxLFxw-tNaPST-41" vertex="1" collapsed="1">
            <mxGeometry x="10" y="40" width="180" height="30" as="geometry">
              <mxRectangle x="10" y="170" width="180" height="160" as="alternateBounds" />
            </mxGeometry>
          </mxCell>
        </UserObject>
        <UserObject label="a lrmoo:F12_Nomen" id="bgf9_nDrxLFxw-tNaPST-47">
          <mxCell style="points=[];html=1;shadow=1;perimeterSpacing=3;spacingLeft=10;spacingRight=10;allowArrows=1;rotatable=0;whiteSpace=wrap;fontSize=14;rounded=0;labelBackgroundColor=none;" parent="bgf9_nDrxLFxw-tNaPST-46" vertex="1">
            <mxGeometry x="10" y="40" width="160" height="30" as="geometry" />
          </mxCell>
        </UserObject>
        <UserObject label="crm:P2_has_type aat:300404681" id="bgf9_nDrxLFxw-tNaPST-48">
          <mxCell style="points=[];html=1;shadow=1;perimeterSpacing=3;spacingLeft=10;spacingRight=10;allowArrows=1;rotatable=0;whiteSpace=wrap;fontSize=14;rounded=0;labelBackgroundColor=none;" parent="bgf9_nDrxLFxw-tNaPST-46" vertex="1">
            <mxGeometry x="10" y="70" width="160" height="40" as="geometry" />
          </mxCell>
        </UserObject>
        <UserObject label="lrmoo:R33_has_string &quot;Hymie Simon&quot;" id="bgf9_nDrxLFxw-tNaPST-49">
          <mxCell style="points=[];html=1;shadow=1;perimeterSpacing=3;spacingLeft=10;spacingRight=10;allowArrows=1;rotatable=0;whiteSpace=wrap;fontSize=14;rounded=0;labelBackgroundColor=none;" parent="bgf9_nDrxLFxw-tNaPST-46" vertex="1">
            <mxGeometry x="10" y="110" width="160" height="40" as="geometry" />
          </mxCell>
        </UserObject>
        <UserObject label=":joe-simon-n3" id="bgf9_nDrxLFxw-tNaPST-50">
          <mxCell style="swimlane;whiteSpace=wrap;collapsible=1;childLayout=stackLayout;swimlaneFillColor=default;resizeParent=1;resizeLast=0;resizeParentMax=0;marginBottom=10;marginTop=10;marginRight=10;marginLeft=10;spacingLeft=5;spacingRight=5;fontStyle=0;startSize=30;points=[];html=1;shadow=1;perimeterSpacing=3;spacingLeft=10;spacingRight=10;allowArrows=1;rotatable=0;whiteSpace=wrap;fontSize=14;horizontal=1;horizontalStack=0;rounded=0;labelBackgroundColor=none;" parent="bgf9_nDrxLFxw-tNaPST-41" vertex="1" collapsed="1">
            <mxGeometry x="10" y="70" width="180" height="30" as="geometry">
              <mxRectangle x="10" y="330" width="180" height="160" as="alternateBounds" />
            </mxGeometry>
          </mxCell>
        </UserObject>
        <UserObject label="a lrmoo:F12_Nomen" id="bgf9_nDrxLFxw-tNaPST-51">
          <mxCell style="points=[];html=1;shadow=1;perimeterSpacing=3;spacingLeft=10;spacingRight=10;allowArrows=1;rotatable=0;whiteSpace=wrap;fontSize=14;rounded=0;labelBackgroundColor=none;" parent="bgf9_nDrxLFxw-tNaPST-50" vertex="1">
            <mxGeometry x="10" y="40" width="160" height="30" as="geometry" />
          </mxCell>
        </UserObject>
        <UserObject label="crm:P2_has_type aat:300404651" id="bgf9_nDrxLFxw-tNaPST-52">
          <mxCell style="points=[];html=1;shadow=1;perimeterSpacing=3;spacingLeft=10;spacingRight=10;allowArrows=1;rotatable=0;whiteSpace=wrap;fontSize=14;rounded=0;labelBackgroundColor=none;" parent="bgf9_nDrxLFxw-tNaPST-50" vertex="1">
            <mxGeometry x="10" y="70" width="160" height="40" as="geometry" />
          </mxCell>
        </UserObject>
        <UserObject label="lrmoo:R33_has_string &quot;Joe&quot;" id="bgf9_nDrxLFxw-tNaPST-53">
          <mxCell style="points=[];html=1;shadow=1;perimeterSpacing=3;spacingLeft=10;spacingRight=10;allowArrows=1;rotatable=0;whiteSpace=wrap;fontSize=14;rounded=0;labelBackgroundColor=none;" parent="bgf9_nDrxLFxw-tNaPST-50" vertex="1">
            <mxGeometry x="10" y="110" width="160" height="40" as="geometry" />
          </mxCell>
        </UserObject>
        <UserObject label=":joe-simon-n4" id="bgf9_nDrxLFxw-tNaPST-54">
          <mxCell style="swimlane;whiteSpace=wrap;collapsible=1;childLayout=stackLayout;swimlaneFillColor=default;resizeParent=1;resizeLast=0;resizeParentMax=0;marginBottom=10;marginTop=10;marginRight=10;marginLeft=10;spacingLeft=5;spacingRight=5;fontStyle=0;startSize=30;points=[];html=1;shadow=1;perimeterSpacing=3;spacingLeft=10;spacingRight=10;allowArrows=1;rotatable=0;whiteSpace=wrap;fontSize=14;horizontal=1;horizontalStack=0;rounded=0;labelBackgroundColor=none;" parent="bgf9_nDrxLFxw-tNaPST-41" vertex="1" collapsed="1">
            <mxGeometry x="10" y="100" width="180" height="30" as="geometry">
              <mxRectangle x="10" y="490" width="180" height="160" as="alternateBounds" />
            </mxGeometry>
          </mxCell>
        </UserObject>
        <UserObject label="a lrmoo:F12_Nomen" id="bgf9_nDrxLFxw-tNaPST-55">
          <mxCell style="points=[];html=1;shadow=1;perimeterSpacing=3;spacingLeft=10;spacingRight=10;allowArrows=1;rotatable=0;whiteSpace=wrap;fontSize=14;rounded=0;labelBackgroundColor=none;" parent="bgf9_nDrxLFxw-tNaPST-54" vertex="1">
            <mxGeometry x="10" y="40" width="160" height="30" as="geometry" />
          </mxCell>
        </UserObject>
        <UserObject label="crm:P2_has_type aat:300404652" id="bgf9_nDrxLFxw-tNaPST-56">
          <mxCell style="points=[];html=1;shadow=1;perimeterSpacing=3;spacingLeft=10;spacingRight=10;allowArrows=1;rotatable=0;whiteSpace=wrap;fontSize=14;rounded=0;labelBackgroundColor=none;" parent="bgf9_nDrxLFxw-tNaPST-54" vertex="1">
            <mxGeometry x="10" y="70" width="160" height="40" as="geometry" />
          </mxCell>
        </UserObject>
        <UserObject label="lrmoo:R33_has_string &quot;Simon&quot;" id="bgf9_nDrxLFxw-tNaPST-57">
          <mxCell style="points=[];html=1;shadow=1;perimeterSpacing=3;spacingLeft=10;spacingRight=10;allowArrows=1;rotatable=0;whiteSpace=wrap;fontSize=14;rounded=0;labelBackgroundColor=none;" parent="bgf9_nDrxLFxw-tNaPST-54" vertex="1">
            <mxGeometry x="10" y="110" width="160" height="40" as="geometry" />
          </mxCell>
        </UserObject>
        <UserObject label="crm:P67i_is_referred_to_by" id="bgf9_nDrxLFxw-tNaPST-58">
          <mxCell style="html=1;edgeStyle=elbowEdgeStyle;rounded=0;orthogonalLoop=1;jettySize=auto;endArrow=block;endFill=1;endSize=5;spacingBottom=20;shadow=1;fontSize=14;labelBackgroundColor=default;fontColor=default;" parent="1" source="bgf9_nDrxLFxw-tNaPST-32" target="bgf9_nDrxLFxw-tNaPST-41" edge="1">
            <mxGeometry relative="1" as="geometry">
              <mxPoint x="765" y="1570" as="sourcePoint" />
              <mxPoint x="1259" y="1497" as="targetPoint" />
            </mxGeometry>
          </mxCell>
        </UserObject>
        <UserObject label=":joe-simon-death" id="bgf9_nDrxLFxw-tNaPST-63">
          <mxCell style="swimlane;whiteSpace=wrap;collapsible=1;childLayout=stackLayout;swimlaneFillColor=default;resizeParent=1;resizeLast=0;resizeParentMax=0;marginBottom=10;marginTop=10;marginRight=10;marginLeft=10;spacingLeft=5;spacingRight=5;fontStyle=0;startSize=30;points=[];html=1;shadow=1;perimeterSpacing=3;spacingLeft=10;spacingRight=10;allowArrows=1;rotatable=0;whiteSpace=wrap;fontSize=14;horizontal=1;horizontalStack=0;labelBackgroundColor=none;rounded=0;fillColor=#F2DCF7;strokeColor=#36393d;" parent="1" vertex="1" collapsed="1">
            <mxGeometry x="1025" y="1490" width="150" height="30" as="geometry">
              <mxRectangle x="1025" y="1190" width="280" height="140" as="alternateBounds" />
            </mxGeometry>
          </mxCell>
        </UserObject>
        <UserObject label="a crm:E69_Death" id="bgf9_nDrxLFxw-tNaPST-64">
          <mxCell style="points=[];html=1;shadow=1;perimeterSpacing=3;spacingLeft=10;spacingRight=10;allowArrows=1;rotatable=0;whiteSpace=wrap;fontSize=14;labelBackgroundColor=none;rounded=0;" parent="bgf9_nDrxLFxw-tNaPST-63" vertex="1">
            <mxGeometry x="10" y="40" width="260" height="30" as="geometry" />
          </mxCell>
        </UserObject>
        <UserObject label="crm:P4_has_time-span :2011-12-14" id="bgf9_nDrxLFxw-tNaPST-65">
          <mxCell style="points=[];html=1;shadow=1;perimeterSpacing=3;spacingLeft=10;spacingRight=10;allowArrows=1;rotatable=0;whiteSpace=wrap;fontSize=14;labelBackgroundColor=none;rounded=0;" parent="bgf9_nDrxLFxw-tNaPST-63" vertex="1">
            <mxGeometry x="10" y="70" width="260" height="30" as="geometry" />
          </mxCell>
        </UserObject>
        <UserObject label="crm:P7_took_place_at gn:5128581" id="bgf9_nDrxLFxw-tNaPST-66">
          <mxCell style="points=[];html=1;shadow=1;perimeterSpacing=3;spacingLeft=10;spacingRight=10;allowArrows=1;rotatable=0;whiteSpace=wrap;fontSize=14;labelBackgroundColor=none;rounded=0;" parent="bgf9_nDrxLFxw-tNaPST-63" vertex="1">
            <mxGeometry x="10" y="100" width="260" height="30" as="geometry" />
          </mxCell>
        </UserObject>
        <UserObject label="crm:P100i_died_in" id="bgf9_nDrxLFxw-tNaPST-67">
          <mxCell style="html=1;edgeStyle=elbowEdgeStyle;rounded=0;orthogonalLoop=1;jettySize=auto;endArrow=block;endFill=1;endSize=5;spacingBottom=20;shadow=1;fontSize=14;labelBackgroundColor=default;fontColor=default;" parent="1" source="bgf9_nDrxLFxw-tNaPST-32" target="bgf9_nDrxLFxw-tNaPST-63" edge="1">
            <mxGeometry relative="1" as="geometry">
              <mxPoint x="895" y="1475" as="sourcePoint" />
              <mxPoint x="1016" y="1470" as="targetPoint" />
            </mxGeometry>
          </mxCell>
        </UserObject>
        <UserObject label=":joe-simon-birth" id="bgf9_nDrxLFxw-tNaPST-68">
          <mxCell style="swimlane;whiteSpace=wrap;collapsible=1;childLayout=stackLayout;swimlaneFillColor=default;resizeParent=1;resizeLast=0;resizeParentMax=0;marginBottom=10;marginTop=10;marginRight=10;marginLeft=10;spacingLeft=5;spacingRight=5;fontStyle=0;startSize=30;points=[];html=1;shadow=1;perimeterSpacing=3;spacingLeft=10;spacingRight=10;allowArrows=1;rotatable=0;whiteSpace=wrap;fontSize=14;horizontal=1;horizontalStack=0;labelBackgroundColor=none;rounded=0;fillColor=#F2DCF7;strokeColor=#36393d;" parent="1" vertex="1" collapsed="1">
            <mxGeometry x="1025" y="1320" width="150" height="30" as="geometry">
              <mxRectangle x="1025" y="1020" width="280" height="140" as="alternateBounds" />
            </mxGeometry>
          </mxCell>
        </UserObject>
        <UserObject label="a crm:E67_Birth" id="bgf9_nDrxLFxw-tNaPST-69">
          <mxCell style="points=[];html=1;shadow=1;perimeterSpacing=3;spacingLeft=10;spacingRight=10;allowArrows=1;rotatable=0;whiteSpace=wrap;fontSize=14;labelBackgroundColor=none;rounded=0;" parent="bgf9_nDrxLFxw-tNaPST-68" vertex="1">
            <mxGeometry x="10" y="40" width="260" height="30" as="geometry" />
          </mxCell>
        </UserObject>
        <UserObject label="crm:P4_has_time-span :1913-10-11" id="bgf9_nDrxLFxw-tNaPST-70">
          <mxCell style="points=[];html=1;shadow=1;perimeterSpacing=3;spacingLeft=10;spacingRight=10;allowArrows=1;rotatable=0;whiteSpace=wrap;fontSize=14;labelBackgroundColor=none;rounded=0;" parent="bgf9_nDrxLFxw-tNaPST-68" vertex="1">
            <mxGeometry x="10" y="70" width="260" height="30" as="geometry" />
          </mxCell>
        </UserObject>
        <UserObject label="crm:P7_took_place_at gn:5134086" id="bgf9_nDrxLFxw-tNaPST-71">
          <mxCell style="points=[];html=1;shadow=1;perimeterSpacing=3;spacingLeft=10;spacingRight=10;allowArrows=1;rotatable=0;whiteSpace=wrap;fontSize=14;labelBackgroundColor=none;rounded=0;" parent="bgf9_nDrxLFxw-tNaPST-68" vertex="1">
            <mxGeometry x="10" y="100" width="260" height="30" as="geometry" />
          </mxCell>
        </UserObject>
        <UserObject label="crm:P98i_was_born" id="bgf9_nDrxLFxw-tNaPST-72">
          <mxCell style="html=1;edgeStyle=elbowEdgeStyle;rounded=0;orthogonalLoop=1;jettySize=auto;endArrow=block;endFill=1;endSize=5;spacingBottom=20;shadow=1;fontSize=14;labelBackgroundColor=default;fontColor=default;" parent="1" source="bgf9_nDrxLFxw-tNaPST-32" target="bgf9_nDrxLFxw-tNaPST-68" edge="1">
            <mxGeometry relative="1" as="geometry">
              <mxPoint x="895" y="1475" as="sourcePoint" />
              <mxPoint x="1286" y="1530" as="targetPoint" />
            </mxGeometry>
          </mxCell>
        </UserObject>
        <UserObject label=":editing-1" id="bgf9_nDrxLFxw-tNaPST-157">
          <mxCell style="swimlane;whiteSpace=wrap;collapsible=1;childLayout=stackLayout;swimlaneFillColor=default;resizeParent=1;resizeLast=0;resizeParentMax=0;marginBottom=10;marginTop=10;marginRight=10;marginLeft=10;spacingLeft=5;spacingRight=5;fontStyle=0;startSize=30;points=[];html=1;shadow=1;perimeterSpacing=3;spacingLeft=10;spacingRight=10;allowArrows=1;rotatable=0;whiteSpace=wrap;fontSize=14;horizontal=1;horizontalStack=0;rounded=0;labelBackgroundColor=none;fillColor=#cce5ff;strokeColor=#36393d;" parent="1" vertex="1" collapsed="1">
            <mxGeometry x="245" y="1140" width="130" height="30" as="geometry">
              <mxRectangle x="245" y="840" width="270" height="120" as="alternateBounds" />
            </mxGeometry>
          </mxCell>
        </UserObject>
        <UserObject label="a crm:PC14_carried_out_by" id="bgf9_nDrxLFxw-tNaPST-158">
          <mxCell style="points=[];html=1;shadow=1;perimeterSpacing=3;spacingLeft=10;spacingRight=10;allowArrows=1;rotatable=0;whiteSpace=wrap;fontSize=14;rounded=0;labelBackgroundColor=none;" parent="bgf9_nDrxLFxw-tNaPST-157" vertex="1">
            <mxGeometry x="10" y="40" width="250" height="30" as="geometry" />
          </mxCell>
        </UserObject>
        <UserObject label="crm:P14.1_in_the_role_of aat:300025526" id="bgf9_nDrxLFxw-tNaPST-159">
          <mxCell style="points=[];html=1;shadow=1;perimeterSpacing=3;spacingLeft=10;spacingRight=10;allowArrows=1;rotatable=0;whiteSpace=wrap;fontSize=14;rounded=0;labelBackgroundColor=none;" parent="bgf9_nDrxLFxw-tNaPST-157" vertex="1">
            <mxGeometry x="10" y="70" width="250" height="40" as="geometry" />
          </mxCell>
        </UserObject>
        <UserObject label=":jack-kirby" id="bgf9_nDrxLFxw-tNaPST-160">
          <mxCell style="swimlane;whiteSpace=wrap;collapsible=1;childLayout=stackLayout;swimlaneFillColor=default;resizeParent=1;resizeLast=0;resizeParentMax=0;marginBottom=10;marginTop=10;marginRight=10;marginLeft=10;spacingLeft=5;spacingRight=5;fontStyle=0;startSize=30;points=[];html=1;shadow=1;perimeterSpacing=3;spacingLeft=10;spacingRight=10;allowArrows=1;rotatable=0;whiteSpace=wrap;fontSize=14;horizontal=1;horizontalStack=0;labelBackgroundColor=none;rounded=0;fillColor=#ffcccc;strokeColor=#36393d;" parent="1" vertex="1">
            <mxGeometry x="35" y="1380" width="200" height="110" as="geometry" />
          </mxCell>
        </UserObject>
        <UserObject label="a crm:E21_Person" id="bgf9_nDrxLFxw-tNaPST-161">
          <mxCell style="points=[];html=1;shadow=1;perimeterSpacing=3;spacingLeft=10;spacingRight=10;allowArrows=1;rotatable=0;whiteSpace=wrap;fontSize=14;labelBackgroundColor=none;rounded=0;" parent="bgf9_nDrxLFxw-tNaPST-160" vertex="1">
            <mxGeometry x="10" y="40" width="180" height="30" as="geometry" />
          </mxCell>
        </UserObject>
        <UserObject label="rdfs:label &quot;Jack Kirby&quot;" id="bgf9_nDrxLFxw-tNaPST-162">
          <mxCell style="points=[];html=1;shadow=1;perimeterSpacing=3;spacingLeft=10;spacingRight=10;allowArrows=1;rotatable=0;whiteSpace=wrap;fontSize=14;labelBackgroundColor=none;rounded=0;" parent="bgf9_nDrxLFxw-tNaPST-160" vertex="1">
            <mxGeometry x="10" y="70" width="180" height="30" as="geometry" />
          </mxCell>
        </UserObject>
        <UserObject label="crm:P02_has_range" id="bgf9_nDrxLFxw-tNaPST-163">
          <mxCell style="html=1;edgeStyle=elbowEdgeStyle;rounded=0;orthogonalLoop=1;jettySize=auto;endArrow=block;endFill=1;endSize=5;spacingBottom=20;shadow=1;fontSize=14;elbow=vertical;labelBackgroundColor=default;fontColor=default;" parent="1" source="bgf9_nDrxLFxw-tNaPST-157" target="bgf9_nDrxLFxw-tNaPST-160" edge="1">
            <mxGeometry x="0.4881" relative="1" as="geometry">
              <mxPoint x="105" y="1550" as="sourcePoint" />
              <mxPoint x="219" y="1550" as="targetPoint" />
              <Array as="points">
                <mxPoint x="135" y="1280" />
              </Array>
              <mxPoint y="-1" as="offset" />
            </mxGeometry>
          </mxCell>
        </UserObject>
        <UserObject label="crm:P01_has_domain" id="bgf9_nDrxLFxw-tNaPST-164">
          <mxCell style="html=1;edgeStyle=elbowEdgeStyle;rounded=0;orthogonalLoop=1;jettySize=auto;endArrow=block;endFill=1;endSize=5;spacingBottom=20;shadow=1;fontSize=14;elbow=vertical;labelBackgroundColor=none;fontColor=default;" parent="1" source="bgf9_nDrxLFxw-tNaPST-157" target="bgf9_nDrxLFxw-tNaPST-38" edge="1">
            <mxGeometry x="0.4254" y="-20" relative="1" as="geometry">
              <mxPoint x="-665" y="770" as="sourcePoint" />
              <mxPoint x="-250" y="1023" as="targetPoint" />
              <Array as="points">
                <mxPoint x="305" y="1080" />
              </Array>
              <mxPoint as="offset" />
            </mxGeometry>
          </mxCell>
        </UserObject>
        <UserObject id="bgf9_nDrxLFxw-tNaPST-165">
          <mxCell style="swimlane;whiteSpace=wrap;collapsible=1;childLayout=stackLayout;swimlaneFillColor=default;resizeParent=1;resizeLast=0;resizeParentMax=0;marginBottom=10;marginTop=10;marginRight=10;marginLeft=10;spacingLeft=5;spacingRight=5;fontStyle=0;startSize=0;points=[];html=1;shadow=1;perimeterSpacing=3;spacingLeft=10;spacingRight=10;allowArrows=1;rotatable=0;whiteSpace=wrap;fontSize=14;horizontalStack=0;rounded=0;labelBackgroundColor=none;" parent="1" vertex="1">
            <mxGeometry x="35" y="1590" width="200" height="170" as="geometry" />
          </mxCell>
        </UserObject>
        <UserObject label=":jack-kirby-n1" id="bgf9_nDrxLFxw-tNaPST-166">
          <mxCell style="swimlane;whiteSpace=wrap;collapsible=1;childLayout=stackLayout;swimlaneFillColor=default;resizeParent=1;resizeLast=0;resizeParentMax=0;marginBottom=10;marginTop=10;marginRight=10;marginLeft=10;spacingLeft=5;spacingRight=5;fontStyle=0;startSize=30;points=[];html=1;shadow=1;perimeterSpacing=3;spacingLeft=10;spacingRight=10;allowArrows=1;rotatable=0;whiteSpace=wrap;fontSize=14;horizontal=1;horizontalStack=0;rounded=0;labelBackgroundColor=none;" parent="bgf9_nDrxLFxw-tNaPST-165" vertex="1" collapsed="1">
            <mxGeometry x="10" y="10" width="180" height="30" as="geometry">
              <mxRectangle x="10" y="10" width="180" height="160" as="alternateBounds" />
            </mxGeometry>
          </mxCell>
        </UserObject>
        <UserObject label="a lrmoo:F12_Nomen" id="bgf9_nDrxLFxw-tNaPST-167">
          <mxCell style="points=[];html=1;shadow=1;perimeterSpacing=3;spacingLeft=10;spacingRight=10;allowArrows=1;rotatable=0;whiteSpace=wrap;fontSize=14;rounded=0;labelBackgroundColor=none;" parent="bgf9_nDrxLFxw-tNaPST-166" vertex="1">
            <mxGeometry x="10" y="40" width="160" height="30" as="geometry" />
          </mxCell>
        </UserObject>
        <UserObject label="crm:P2_has_type aat:300266386" id="bgf9_nDrxLFxw-tNaPST-168">
          <mxCell style="points=[];html=1;shadow=1;perimeterSpacing=3;spacingLeft=10;spacingRight=10;allowArrows=1;rotatable=0;whiteSpace=wrap;fontSize=14;rounded=0;labelBackgroundColor=none;" parent="bgf9_nDrxLFxw-tNaPST-166" vertex="1">
            <mxGeometry x="10" y="70" width="160" height="40" as="geometry" />
          </mxCell>
        </UserObject>
        <UserObject label="lrmoo:R33_has_string &quot;Jack Kirby&quot;" id="bgf9_nDrxLFxw-tNaPST-169">
          <mxCell style="points=[];html=1;shadow=1;perimeterSpacing=3;spacingLeft=10;spacingRight=10;allowArrows=1;rotatable=0;whiteSpace=wrap;fontSize=14;rounded=0;labelBackgroundColor=none;" parent="bgf9_nDrxLFxw-tNaPST-166" vertex="1">
            <mxGeometry x="10" y="110" width="160" height="40" as="geometry" />
          </mxCell>
        </UserObject>
        <UserObject label=":jack-kirby-n2" id="bgf9_nDrxLFxw-tNaPST-170">
          <mxCell style="swimlane;whiteSpace=wrap;collapsible=1;childLayout=stackLayout;swimlaneFillColor=default;resizeParent=1;resizeLast=0;resizeParentMax=0;marginBottom=10;marginTop=10;marginRight=10;marginLeft=10;spacingLeft=5;spacingRight=5;fontStyle=0;startSize=30;points=[];html=1;shadow=1;perimeterSpacing=3;spacingLeft=10;spacingRight=10;allowArrows=1;rotatable=0;whiteSpace=wrap;fontSize=14;horizontal=1;horizontalStack=0;rounded=0;labelBackgroundColor=none;" parent="bgf9_nDrxLFxw-tNaPST-165" vertex="1" collapsed="1">
            <mxGeometry x="10" y="40" width="180" height="30" as="geometry">
              <mxRectangle x="10" y="40" width="180" height="160" as="alternateBounds" />
            </mxGeometry>
          </mxCell>
        </UserObject>
        <UserObject label="a lrmoo:F12_Nomen" id="bgf9_nDrxLFxw-tNaPST-171">
          <mxCell style="points=[];html=1;shadow=1;perimeterSpacing=3;spacingLeft=10;spacingRight=10;allowArrows=1;rotatable=0;whiteSpace=wrap;fontSize=14;rounded=0;labelBackgroundColor=none;" parent="bgf9_nDrxLFxw-tNaPST-170" vertex="1">
            <mxGeometry x="10" y="40" width="160" height="30" as="geometry" />
          </mxCell>
        </UserObject>
        <UserObject label="crm:P2_has_type aat:300404681" id="bgf9_nDrxLFxw-tNaPST-172">
          <mxCell style="points=[];html=1;shadow=1;perimeterSpacing=3;spacingLeft=10;spacingRight=10;allowArrows=1;rotatable=0;whiteSpace=wrap;fontSize=14;rounded=0;labelBackgroundColor=none;" parent="bgf9_nDrxLFxw-tNaPST-170" vertex="1">
            <mxGeometry x="10" y="70" width="160" height="40" as="geometry" />
          </mxCell>
        </UserObject>
        <UserObject label="lrmoo:R33_has_string &quot;Jacob Kurtzberg&quot;" id="bgf9_nDrxLFxw-tNaPST-173">
          <mxCell style="points=[];html=1;shadow=1;perimeterSpacing=3;spacingLeft=10;spacingRight=10;allowArrows=1;rotatable=0;whiteSpace=wrap;fontSize=14;rounded=0;labelBackgroundColor=none;" parent="bgf9_nDrxLFxw-tNaPST-170" vertex="1">
            <mxGeometry x="10" y="110" width="160" height="40" as="geometry" />
          </mxCell>
        </UserObject>
        <UserObject label=":jack-kirby-n3" id="bgf9_nDrxLFxw-tNaPST-174">
          <mxCell style="swimlane;whiteSpace=wrap;collapsible=1;childLayout=stackLayout;swimlaneFillColor=default;resizeParent=1;resizeLast=0;resizeParentMax=0;marginBottom=10;marginTop=10;marginRight=10;marginLeft=10;spacingLeft=5;spacingRight=5;fontStyle=0;startSize=30;points=[];html=1;shadow=1;perimeterSpacing=3;spacingLeft=10;spacingRight=10;allowArrows=1;rotatable=0;whiteSpace=wrap;fontSize=14;horizontal=1;horizontalStack=0;rounded=0;labelBackgroundColor=none;" parent="bgf9_nDrxLFxw-tNaPST-165" vertex="1" collapsed="1">
            <mxGeometry x="10" y="70" width="180" height="30" as="geometry">
              <mxRectangle x="10" y="70" width="180" height="160" as="alternateBounds" />
            </mxGeometry>
          </mxCell>
        </UserObject>
        <UserObject label="a lrmoo:F12_Nomen" id="bgf9_nDrxLFxw-tNaPST-175">
          <mxCell style="points=[];html=1;shadow=1;perimeterSpacing=3;spacingLeft=10;spacingRight=10;allowArrows=1;rotatable=0;whiteSpace=wrap;fontSize=14;rounded=0;labelBackgroundColor=none;" parent="bgf9_nDrxLFxw-tNaPST-174" vertex="1">
            <mxGeometry x="10" y="40" width="160" height="30" as="geometry" />
          </mxCell>
        </UserObject>
        <UserObject label="crm:P2_has_type aat:300404651" id="bgf9_nDrxLFxw-tNaPST-176">
          <mxCell style="points=[];html=1;shadow=1;perimeterSpacing=3;spacingLeft=10;spacingRight=10;allowArrows=1;rotatable=0;whiteSpace=wrap;fontSize=14;rounded=0;labelBackgroundColor=none;" parent="bgf9_nDrxLFxw-tNaPST-174" vertex="1">
            <mxGeometry x="10" y="70" width="160" height="40" as="geometry" />
          </mxCell>
        </UserObject>
        <UserObject label="lrmoo:R33_has_string &quot;Jack&quot;" id="bgf9_nDrxLFxw-tNaPST-177">
          <mxCell style="points=[];html=1;shadow=1;perimeterSpacing=3;spacingLeft=10;spacingRight=10;allowArrows=1;rotatable=0;whiteSpace=wrap;fontSize=14;rounded=0;labelBackgroundColor=none;" parent="bgf9_nDrxLFxw-tNaPST-174" vertex="1">
            <mxGeometry x="10" y="110" width="160" height="40" as="geometry" />
          </mxCell>
        </UserObject>
        <UserObject label=":jack-kirby-n4" id="bgf9_nDrxLFxw-tNaPST-178">
          <mxCell style="swimlane;whiteSpace=wrap;collapsible=1;childLayout=stackLayout;swimlaneFillColor=default;resizeParent=1;resizeLast=0;resizeParentMax=0;marginBottom=10;marginTop=10;marginRight=10;marginLeft=10;spacingLeft=5;spacingRight=5;fontStyle=0;startSize=30;points=[];html=1;shadow=1;perimeterSpacing=3;spacingLeft=10;spacingRight=10;allowArrows=1;rotatable=0;whiteSpace=wrap;fontSize=14;horizontal=1;horizontalStack=0;rounded=0;labelBackgroundColor=none;" parent="bgf9_nDrxLFxw-tNaPST-165" vertex="1" collapsed="1">
            <mxGeometry x="10" y="100" width="180" height="30" as="geometry">
              <mxRectangle x="10" y="100" width="180" height="160" as="alternateBounds" />
            </mxGeometry>
          </mxCell>
        </UserObject>
        <UserObject label="a lrmoo:F12_Nomen" id="bgf9_nDrxLFxw-tNaPST-179">
          <mxCell style="points=[];html=1;shadow=1;perimeterSpacing=3;spacingLeft=10;spacingRight=10;allowArrows=1;rotatable=0;whiteSpace=wrap;fontSize=14;rounded=0;labelBackgroundColor=none;" parent="bgf9_nDrxLFxw-tNaPST-178" vertex="1">
            <mxGeometry x="10" y="40" width="160" height="30" as="geometry" />
          </mxCell>
        </UserObject>
        <UserObject label="crm:P2_has_type aat:300404652" id="bgf9_nDrxLFxw-tNaPST-180">
          <mxCell style="points=[];html=1;shadow=1;perimeterSpacing=3;spacingLeft=10;spacingRight=10;allowArrows=1;rotatable=0;whiteSpace=wrap;fontSize=14;rounded=0;labelBackgroundColor=none;" parent="bgf9_nDrxLFxw-tNaPST-178" vertex="1">
            <mxGeometry x="10" y="70" width="160" height="40" as="geometry" />
          </mxCell>
        </UserObject>
        <UserObject label="lrmoo:R33_has_string &quot;Kirby&quot;" id="bgf9_nDrxLFxw-tNaPST-181">
          <mxCell style="points=[];html=1;shadow=1;perimeterSpacing=3;spacingLeft=10;spacingRight=10;allowArrows=1;rotatable=0;whiteSpace=wrap;fontSize=14;rounded=0;labelBackgroundColor=none;" parent="bgf9_nDrxLFxw-tNaPST-178" vertex="1">
            <mxGeometry x="10" y="110" width="160" height="40" as="geometry" />
          </mxCell>
        </UserObject>
        <UserObject label=":jon-henri" id="bgf9_nDrxLFxw-tNaPST-59">
          <mxCell style="swimlane;whiteSpace=wrap;collapsible=1;childLayout=stackLayout;swimlaneFillColor=default;resizeParent=1;resizeLast=0;resizeParentMax=0;marginBottom=10;marginTop=10;marginRight=10;marginLeft=10;spacingLeft=5;spacingRight=5;fontStyle=0;startSize=30;points=[];html=1;shadow=1;perimeterSpacing=3;spacingLeft=10;spacingRight=10;allowArrows=1;rotatable=0;whiteSpace=wrap;fontSize=14;horizontal=1;horizontalStack=0;rounded=0;labelBackgroundColor=none;" parent="bgf9_nDrxLFxw-tNaPST-165" vertex="1" collapsed="1">
            <mxGeometry x="10" y="130" width="180" height="30" as="geometry">
              <mxRectangle x="10" y="130" width="180" height="160" as="alternateBounds" />
            </mxGeometry>
          </mxCell>
        </UserObject>
        <UserObject label="a lrmoo:F12_Nomen" id="bgf9_nDrxLFxw-tNaPST-60">
          <mxCell style="points=[];html=1;shadow=1;perimeterSpacing=3;spacingLeft=10;spacingRight=10;allowArrows=1;rotatable=0;whiteSpace=wrap;fontSize=14;rounded=0;labelBackgroundColor=none;" parent="bgf9_nDrxLFxw-tNaPST-59" vertex="1">
            <mxGeometry x="10" y="40" width="160" height="30" as="geometry" />
          </mxCell>
        </UserObject>
        <UserObject label="crm:P2_has_type aat:300404678" id="bgf9_nDrxLFxw-tNaPST-61">
          <mxCell style="points=[];html=1;shadow=1;perimeterSpacing=3;spacingLeft=10;spacingRight=10;allowArrows=1;rotatable=0;whiteSpace=wrap;fontSize=14;rounded=0;labelBackgroundColor=none;" parent="bgf9_nDrxLFxw-tNaPST-59" vertex="1">
            <mxGeometry x="10" y="70" width="160" height="40" as="geometry" />
          </mxCell>
        </UserObject>
        <UserObject label="lrmoo:R33_has_string &quot;Jon Henri&quot;" id="bgf9_nDrxLFxw-tNaPST-62">
          <mxCell style="points=[];html=1;shadow=1;perimeterSpacing=3;spacingLeft=10;spacingRight=10;allowArrows=1;rotatable=0;whiteSpace=wrap;fontSize=14;rounded=0;labelBackgroundColor=none;" parent="bgf9_nDrxLFxw-tNaPST-59" vertex="1">
            <mxGeometry x="10" y="110" width="160" height="40" as="geometry" />
          </mxCell>
        </UserObject>
        <UserObject label="crm:P67i_is_referred_to_by" id="bgf9_nDrxLFxw-tNaPST-182">
          <mxCell style="html=1;edgeStyle=elbowEdgeStyle;rounded=0;orthogonalLoop=1;jettySize=auto;endArrow=block;endFill=1;endSize=5;spacingBottom=20;shadow=1;fontSize=14;labelBackgroundColor=default;fontColor=default;" parent="1" source="bgf9_nDrxLFxw-tNaPST-160" target="bgf9_nDrxLFxw-tNaPST-165" edge="1">
            <mxGeometry relative="1" as="geometry">
              <mxPoint x="115" y="1570" as="sourcePoint" />
              <mxPoint x="609" y="1497" as="targetPoint" />
            </mxGeometry>
          </mxCell>
        </UserObject>
        <UserObject label="crm:P100i_died_in" id="bgf9_nDrxLFxw-tNaPST-191">
          <mxCell style="html=1;edgeStyle=elbowEdgeStyle;rounded=0;orthogonalLoop=1;jettySize=auto;endArrow=block;endFill=1;endSize=5;spacingBottom=20;shadow=1;fontSize=14;labelBackgroundColor=default;fontColor=default;" parent="1" source="bgf9_nDrxLFxw-tNaPST-160" target="bgf9_nDrxLFxw-tNaPST-187" edge="1">
            <mxGeometry relative="1" as="geometry">
              <mxPoint x="245" y="1475" as="sourcePoint" />
              <mxPoint x="366" y="1470" as="targetPoint" />
            </mxGeometry>
          </mxCell>
        </UserObject>
        <UserObject label=":jack-kirby-birth" id="bgf9_nDrxLFxw-tNaPST-192">
          <mxCell style="swimlane;whiteSpace=wrap;collapsible=1;childLayout=stackLayout;swimlaneFillColor=default;resizeParent=1;resizeLast=0;resizeParentMax=0;marginBottom=10;marginTop=10;marginRight=10;marginLeft=10;spacingLeft=5;spacingRight=5;fontStyle=0;startSize=30;points=[];html=1;shadow=1;perimeterSpacing=3;spacingLeft=10;spacingRight=10;allowArrows=1;rotatable=0;whiteSpace=wrap;fontSize=14;horizontal=1;horizontalStack=0;labelBackgroundColor=none;rounded=0;fillColor=#F2DCF7;strokeColor=#36393d;" parent="1" vertex="1" collapsed="1">
            <mxGeometry x="375" y="1320" width="150" height="30" as="geometry">
              <mxRectangle x="270" y="260" width="280" height="140" as="alternateBounds" />
            </mxGeometry>
          </mxCell>
        </UserObject>
        <UserObject label="a crm:E67_Birth" id="bgf9_nDrxLFxw-tNaPST-193">
          <mxCell style="points=[];html=1;shadow=1;perimeterSpacing=3;spacingLeft=10;spacingRight=10;allowArrows=1;rotatable=0;whiteSpace=wrap;fontSize=14;labelBackgroundColor=none;rounded=0;" parent="bgf9_nDrxLFxw-tNaPST-192" vertex="1">
            <mxGeometry x="10" y="40" width="260" height="30" as="geometry" />
          </mxCell>
        </UserObject>
        <UserObject label="crm:P4_has_time-span :1917-08-28" id="bgf9_nDrxLFxw-tNaPST-194">
          <mxCell style="points=[];html=1;shadow=1;perimeterSpacing=3;spacingLeft=10;spacingRight=10;allowArrows=1;rotatable=0;whiteSpace=wrap;fontSize=14;labelBackgroundColor=none;rounded=0;" parent="bgf9_nDrxLFxw-tNaPST-192" vertex="1">
            <mxGeometry x="10" y="70" width="260" height="30" as="geometry" />
          </mxCell>
        </UserObject>
        <UserObject label="crm:P7_took_place_at gn:5128581" id="bgf9_nDrxLFxw-tNaPST-195">
          <mxCell style="points=[];html=1;shadow=1;perimeterSpacing=3;spacingLeft=10;spacingRight=10;allowArrows=1;rotatable=0;whiteSpace=wrap;fontSize=14;labelBackgroundColor=none;rounded=0;" parent="bgf9_nDrxLFxw-tNaPST-192" vertex="1">
            <mxGeometry x="10" y="100" width="260" height="30" as="geometry" />
          </mxCell>
        </UserObject>
        <UserObject label="crm:P98i_was_born" id="bgf9_nDrxLFxw-tNaPST-196">
          <mxCell style="html=1;edgeStyle=elbowEdgeStyle;rounded=0;orthogonalLoop=1;jettySize=auto;endArrow=block;endFill=1;endSize=5;spacingBottom=20;shadow=1;fontSize=14;labelBackgroundColor=default;fontColor=default;" parent="1" source="bgf9_nDrxLFxw-tNaPST-160" target="bgf9_nDrxLFxw-tNaPST-192" edge="1">
            <mxGeometry relative="1" as="geometry">
              <mxPoint x="245" y="1475" as="sourcePoint" />
              <mxPoint x="636" y="1530" as="targetPoint" />
            </mxGeometry>
          </mxCell>
        </UserObject>
        <UserObject label=":penciling" id="bgf9_nDrxLFxw-tNaPST-219">
          <mxCell style="swimlane;whiteSpace=wrap;collapsible=1;childLayout=stackLayout;swimlaneFillColor=default;resizeParent=1;resizeLast=0;resizeParentMax=0;marginBottom=10;marginTop=10;marginRight=10;marginLeft=10;spacingLeft=5;spacingRight=5;fontStyle=0;startSize=30;points=[];html=1;shadow=1;perimeterSpacing=3;spacingLeft=10;spacingRight=10;allowArrows=1;rotatable=0;whiteSpace=wrap;fontSize=14;horizontal=1;horizontalStack=0;rounded=0;labelBackgroundColor=none;fillColor=#cce5ff;strokeColor=#36393d;" parent="1" vertex="1" collapsed="1">
            <mxGeometry y="1010" width="130" height="30" as="geometry">
              <mxRectangle y="710" width="270" height="120" as="alternateBounds" />
            </mxGeometry>
          </mxCell>
        </UserObject>
        <UserObject label="a crm:PC14_carried_out_by" id="bgf9_nDrxLFxw-tNaPST-220">
          <mxCell style="points=[];html=1;shadow=1;perimeterSpacing=3;spacingLeft=10;spacingRight=10;allowArrows=1;rotatable=0;whiteSpace=wrap;fontSize=14;rounded=0;labelBackgroundColor=none;" parent="bgf9_nDrxLFxw-tNaPST-219" vertex="1">
            <mxGeometry x="10" y="40" width="250" height="30" as="geometry" />
          </mxCell>
        </UserObject>
        <UserObject label="crm:P14.1_in_the_role_of aat:300443954" id="bgf9_nDrxLFxw-tNaPST-221">
          <mxCell style="points=[];html=1;shadow=1;perimeterSpacing=3;spacingLeft=10;spacingRight=10;allowArrows=1;rotatable=0;whiteSpace=wrap;fontSize=14;rounded=0;labelBackgroundColor=none;" parent="bgf9_nDrxLFxw-tNaPST-219" vertex="1">
            <mxGeometry x="10" y="70" width="250" height="40" as="geometry" />
          </mxCell>
        </UserObject>
        <UserObject label="&lt;span style=&quot;color: transparent;&quot;&gt;crm:P02_has_range&lt;/span&gt;" id="bgf9_nDrxLFxw-tNaPST-222">
          <mxCell style="html=1;edgeStyle=elbowEdgeStyle;rounded=0;orthogonalLoop=1;jettySize=auto;endArrow=block;endFill=1;endSize=5;spacingBottom=20;shadow=1;fontSize=14;elbow=vertical;labelBackgroundColor=none;fontColor=default;" parent="1" source="bgf9_nDrxLFxw-tNaPST-219" target="bgf9_nDrxLFxw-tNaPST-160" edge="1">
            <mxGeometry relative="1" as="geometry">
              <mxPoint x="100" y="1400" as="sourcePoint" />
              <mxPoint x="90" y="1197" as="targetPoint" />
              <Array as="points">
                <mxPoint x="135" y="1280" />
              </Array>
            </mxGeometry>
          </mxCell>
        </UserObject>
        <UserObject label=":cover-creation" id="bgf9_nDrxLFxw-tNaPST-223">
          <mxCell style="swimlane;whiteSpace=wrap;collapsible=1;childLayout=stackLayout;swimlaneFillColor=default;resizeParent=1;resizeLast=0;resizeParentMax=0;marginBottom=10;marginTop=10;marginRight=10;marginLeft=10;spacingLeft=5;spacingRight=5;fontStyle=0;startSize=30;points=[];html=1;shadow=1;perimeterSpacing=3;spacingLeft=10;spacingRight=10;allowArrows=1;rotatable=0;whiteSpace=wrap;fontSize=14;horizontal=1;horizontalStack=0;rounded=0;labelBackgroundColor=none;fillColor=#F2DCF7;strokeColor=#36393d;" parent="1" vertex="1">
            <mxGeometry x="1775" y="910" width="235" height="80" as="geometry">
              <mxRectangle x="210" y="-140" width="140" height="30" as="alternateBounds" />
            </mxGeometry>
          </mxCell>
        </UserObject>
        <UserObject label="a lrmoo:F27_Work_Creation" id="bgf9_nDrxLFxw-tNaPST-224">
          <mxCell style="points=[];html=1;shadow=1;perimeterSpacing=3;spacingLeft=10;spacingRight=10;allowArrows=1;rotatable=0;whiteSpace=wrap;fontSize=14;rounded=0;labelBackgroundColor=none;" parent="bgf9_nDrxLFxw-tNaPST-223" vertex="1">
            <mxGeometry x="10" y="40" width="215" height="30" as="geometry" />
          </mxCell>
        </UserObject>
        <UserObject label="crm:P01_has_domain" id="bgf9_nDrxLFxw-tNaPST-225">
          <mxCell style="html=1;edgeStyle=elbowEdgeStyle;rounded=0;orthogonalLoop=1;jettySize=auto;endArrow=block;endFill=1;endSize=5;spacingBottom=20;shadow=1;fontSize=14;elbow=vertical;labelBackgroundColor=default;fontColor=default;" parent="1" source="bgf9_nDrxLFxw-tNaPST-219" target="bgf9_nDrxLFxw-tNaPST-223" edge="1">
            <mxGeometry x="-0.8494" relative="1" as="geometry">
              <mxPoint x="-285" y="570" as="sourcePoint" />
              <mxPoint x="-171" y="570" as="targetPoint" />
              <Array as="points">
                <mxPoint x="1610" y="1030" />
              </Array>
              <mxPoint as="offset" />
            </mxGeometry>
          </mxCell>
        </UserObject>
        <UserObject label=":inking" id="bgf9_nDrxLFxw-tNaPST-226">
          <mxCell style="swimlane;whiteSpace=wrap;collapsible=1;childLayout=stackLayout;swimlaneFillColor=default;resizeParent=1;resizeLast=0;resizeParentMax=0;marginBottom=10;marginTop=10;marginRight=10;marginLeft=10;spacingLeft=5;spacingRight=5;fontStyle=0;startSize=30;points=[];html=1;shadow=1;perimeterSpacing=3;spacingLeft=10;spacingRight=10;allowArrows=1;rotatable=0;whiteSpace=wrap;fontSize=14;horizontal=1;horizontalStack=0;rounded=0;labelBackgroundColor=none;fillColor=#cce5ff;strokeColor=#36393d;" parent="1" vertex="1" collapsed="1">
            <mxGeometry x="850" y="1140" width="130" height="30" as="geometry">
              <mxRectangle x="850" y="840" width="270" height="120" as="alternateBounds" />
            </mxGeometry>
          </mxCell>
        </UserObject>
        <UserObject label="a crm:PC14_carried_out_by" id="bgf9_nDrxLFxw-tNaPST-227">
          <mxCell style="points=[];html=1;shadow=1;perimeterSpacing=3;spacingLeft=10;spacingRight=10;allowArrows=1;rotatable=0;whiteSpace=wrap;fontSize=14;rounded=0;labelBackgroundColor=none;" parent="bgf9_nDrxLFxw-tNaPST-226" vertex="1">
            <mxGeometry x="10" y="40" width="250" height="30" as="geometry" />
          </mxCell>
        </UserObject>
        <UserObject label="crm:P14.1_in_the_role_of aat:300443955" id="bgf9_nDrxLFxw-tNaPST-228">
          <mxCell style="points=[];html=1;shadow=1;perimeterSpacing=3;spacingLeft=10;spacingRight=10;allowArrows=1;rotatable=0;whiteSpace=wrap;fontSize=14;rounded=0;labelBackgroundColor=none;" parent="bgf9_nDrxLFxw-tNaPST-226" vertex="1">
            <mxGeometry x="10" y="70" width="250" height="40" as="geometry" />
          </mxCell>
        </UserObject>
        <UserObject label="&lt;span style=&quot;color: transparent;&quot;&gt;crm:P02_has_range&lt;/span&gt;" id="bgf9_nDrxLFxw-tNaPST-229">
          <mxCell style="html=1;edgeStyle=elbowEdgeStyle;rounded=0;orthogonalLoop=1;jettySize=auto;endArrow=block;endFill=1;endSize=5;spacingBottom=20;shadow=1;fontSize=14;elbow=vertical;labelBackgroundColor=none;fontColor=default;" parent="1" source="bgf9_nDrxLFxw-tNaPST-226" target="bgf9_nDrxLFxw-tNaPST-32" edge="1">
            <mxGeometry x="0.3398" relative="1" as="geometry">
              <mxPoint x="750" y="1397" as="sourcePoint" />
              <mxPoint x="785" y="1374" as="targetPoint" />
              <Array as="points">
                <mxPoint x="920" y="1280" />
              </Array>
              <mxPoint as="offset" />
            </mxGeometry>
          </mxCell>
        </UserObject>
        <UserObject label="crm:P01_has_domain" id="bgf9_nDrxLFxw-tNaPST-230">
          <mxCell style="html=1;edgeStyle=elbowEdgeStyle;rounded=0;orthogonalLoop=1;jettySize=auto;endArrow=block;endFill=1;endSize=5;spacingBottom=20;shadow=1;fontSize=14;elbow=vertical;labelBackgroundColor=default;fontColor=default;" parent="1" source="bgf9_nDrxLFxw-tNaPST-226" target="bgf9_nDrxLFxw-tNaPST-223" edge="1">
            <mxGeometry x="-0.9371" relative="1" as="geometry">
              <mxPoint x="125" y="594" as="sourcePoint" />
              <mxPoint x="1320" y="690" as="targetPoint" />
              <Array as="points">
                <mxPoint x="1420" y="1030" />
              </Array>
              <mxPoint as="offset" />
            </mxGeometry>
          </mxCell>
        </UserObject>
        <UserObject label=":young-romance-26-cover-w" id="bgf9_nDrxLFxw-tNaPST-231">
          <mxCell style="swimlane;whiteSpace=wrap;collapsible=1;childLayout=stackLayout;swimlaneFillColor=default;resizeParent=1;resizeLast=0;resizeParentMax=0;marginBottom=10;marginTop=10;marginRight=10;marginLeft=10;spacingLeft=5;spacingRight=5;fontStyle=0;startSize=30;points=[];html=1;shadow=1;perimeterSpacing=3;spacingLeft=10;spacingRight=10;allowArrows=1;rotatable=0;whiteSpace=wrap;fontSize=14;horizontal=1;horizontalStack=0;rounded=0;labelBackgroundColor=none;fillColor=#ffcc99;strokeColor=#36393d;" parent="1" vertex="1">
            <mxGeometry x="1330" y="-620" width="290" height="170" as="geometry" />
          </mxCell>
        </UserObject>
        <UserObject label="a lrmoo:F1_Work" id="bgf9_nDrxLFxw-tNaPST-232">
          <mxCell style="points=[];html=1;shadow=1;perimeterSpacing=3;spacingLeft=10;spacingRight=10;allowArrows=1;rotatable=0;whiteSpace=wrap;fontSize=14;rounded=0;labelBackgroundColor=none;" parent="bgf9_nDrxLFxw-tNaPST-231" vertex="1">
            <mxGeometry x="10" y="40" width="270" height="30" as="geometry" />
          </mxCell>
        </UserObject>
        <UserObject label="crm:P2_has_type aat:300255278" id="bgf9_nDrxLFxw-tNaPST-295">
          <mxCell style="points=[];html=1;shadow=1;perimeterSpacing=3;spacingLeft=10;spacingRight=10;allowArrows=1;rotatable=0;whiteSpace=wrap;fontSize=14;rounded=0;labelBackgroundColor=none;" parent="bgf9_nDrxLFxw-tNaPST-231" vertex="1">
            <mxGeometry x="10" y="70" width="270" height="40" as="geometry" />
          </mxCell>
        </UserObject>
        <UserObject label="rdfs:label &quot;We&#39;ve got to keep our love a secret, Marge...&quot;@en" id="bgf9_nDrxLFxw-tNaPST-292">
          <mxCell style="points=[];html=1;shadow=1;perimeterSpacing=3;spacingLeft=10;spacingRight=10;allowArrows=1;rotatable=0;whiteSpace=wrap;fontSize=14;rounded=0;labelBackgroundColor=none;" parent="bgf9_nDrxLFxw-tNaPST-231" vertex="1">
            <mxGeometry x="10" y="110" width="270" height="50" as="geometry" />
          </mxCell>
        </UserObject>
        <UserObject label="lrmoo:R16i_was_created_by" id="bgf9_nDrxLFxw-tNaPST-238">
          <mxCell style="html=1;edgeStyle=elbowEdgeStyle;rounded=0;orthogonalLoop=1;jettySize=auto;endArrow=block;endFill=1;endSize=5;spacingBottom=20;shadow=1;fontSize=14;labelBackgroundColor=default;fontColor=default;" parent="1" source="bgf9_nDrxLFxw-tNaPST-231" target="bgf9_nDrxLFxw-tNaPST-223" edge="1">
            <mxGeometry x="-0.7639" relative="1" as="geometry">
              <mxPoint x="950" y="220" as="sourcePoint" />
              <mxPoint x="1850" y="860" as="targetPoint" />
              <Array as="points">
                <mxPoint x="1893" y="920" />
              </Array>
              <mxPoint as="offset" />
            </mxGeometry>
          </mxCell>
        </UserObject>
        <UserObject label=":feature-publications" id="bgf9_nDrxLFxw-tNaPST-239">
          <mxCell style="swimlane;whiteSpace=wrap;collapsible=1;childLayout=stackLayout;swimlaneFillColor=default;resizeParent=1;resizeLast=0;resizeParentMax=0;marginBottom=10;marginTop=10;marginRight=10;marginLeft=10;spacingLeft=5;spacingRight=5;fontStyle=0;startSize=30;points=[];html=1;shadow=1;perimeterSpacing=3;spacingLeft=10;spacingRight=10;allowArrows=1;rotatable=0;whiteSpace=wrap;fontSize=14;horizontal=1;horizontalStack=0;labelBackgroundColor=none;fillColor=#ffcccc;strokeColor=#36393d;" parent="1" vertex="1">
            <mxGeometry x="1130" y="710" width="290" height="110" as="geometry" />
          </mxCell>
        </UserObject>
        <UserObject label="a lrmoo:F11_Corporate_Body" id="bgf9_nDrxLFxw-tNaPST-240">
          <mxCell style="points=[];html=1;shadow=1;perimeterSpacing=3;spacingLeft=10;spacingRight=10;allowArrows=1;rotatable=0;whiteSpace=wrap;fontSize=14;labelBackgroundColor=none;" parent="bgf9_nDrxLFxw-tNaPST-239" vertex="1">
            <mxGeometry x="10" y="40" width="270" height="30" as="geometry" />
          </mxCell>
        </UserObject>
        <UserObject label="rdfs:label &quot;Feature Publications&quot;@en" id="bgf9_nDrxLFxw-tNaPST-241">
          <mxCell style="points=[];html=1;shadow=1;perimeterSpacing=3;spacingLeft=10;spacingRight=10;allowArrows=1;rotatable=0;whiteSpace=wrap;fontSize=14;labelBackgroundColor=none;" parent="bgf9_nDrxLFxw-tNaPST-239" vertex="1">
            <mxGeometry x="10" y="70" width="270" height="30" as="geometry" />
          </mxCell>
        </UserObject>
        <UserObject label=":young-romance-26-e" id="bgf9_nDrxLFxw-tNaPST-242">
          <mxCell style="swimlane;whiteSpace=wrap;collapsible=1;childLayout=stackLayout;swimlaneFillColor=default;resizeParent=1;resizeLast=0;resizeParentMax=0;marginBottom=10;marginTop=10;marginRight=10;marginLeft=10;spacingLeft=5;spacingRight=5;fontStyle=0;startSize=30;points=[];html=1;shadow=1;perimeterSpacing=3;spacingLeft=10;spacingRight=10;allowArrows=1;rotatable=0;whiteSpace=wrap;fontSize=14;horizontal=1;horizontalStack=0;rounded=0;labelBackgroundColor=none;fillColor=#FFE599;strokeColor=#36393d;" parent="1" vertex="1">
            <mxGeometry x="620" y="-370" width="290" height="270" as="geometry" />
          </mxCell>
        </UserObject>
        <UserObject label="a lrmoo:F2_Expression" id="bgf9_nDrxLFxw-tNaPST-243">
          <mxCell style="points=[];html=1;shadow=1;perimeterSpacing=3;spacingLeft=10;spacingRight=10;allowArrows=1;rotatable=0;whiteSpace=wrap;fontSize=14;rounded=0;labelBackgroundColor=none;" parent="bgf9_nDrxLFxw-tNaPST-242" vertex="1">
            <mxGeometry x="10" y="40" width="270" height="30" as="geometry" />
          </mxCell>
        </UserObject>
        <UserObject label="crm:P2_has_type" id="bgf9_nDrxLFxw-tNaPST-306">
          <mxCell style="swimlane;whiteSpace=wrap;collapsible=1;childLayout=stackLayout;swimlaneFillColor=default;resizeParent=1;resizeLast=0;resizeParentMax=0;marginBottom=10;marginTop=10;marginRight=10;marginLeft=10;spacingLeft=5;spacingRight=5;fontStyle=0;startSize=30;points=[];html=1;shadow=1;perimeterSpacing=3;spacingLeft=10;spacingRight=10;allowArrows=1;rotatable=0;whiteSpace=wrap;fontSize=14;horizontal=1;horizontalStack=0;labelBackgroundColor=none;" parent="bgf9_nDrxLFxw-tNaPST-242" vertex="1">
            <mxGeometry x="10" y="70" width="270" height="110" as="geometry">
              <mxRectangle x="10" y="70" width="270" height="30" as="alternateBounds" />
            </mxGeometry>
          </mxCell>
        </UserObject>
        <UserObject label="aat:300264388" id="bgf9_nDrxLFxw-tNaPST-307">
          <mxCell style="points=[];html=1;shadow=1;perimeterSpacing=3;spacingLeft=10;spacingRight=10;allowArrows=1;rotatable=0;whiteSpace=wrap;fontSize=14;labelBackgroundColor=none;" parent="bgf9_nDrxLFxw-tNaPST-306" vertex="1">
            <mxGeometry x="10" y="40" width="250" height="30" as="geometry" />
          </mxCell>
        </UserObject>
        <UserObject label="aat:300263751" id="bgf9_nDrxLFxw-tNaPST-308">
          <mxCell style="points=[];html=1;shadow=1;perimeterSpacing=3;spacingLeft=10;spacingRight=10;allowArrows=1;rotatable=0;whiteSpace=wrap;fontSize=14;labelBackgroundColor=none;" parent="bgf9_nDrxLFxw-tNaPST-306" vertex="1">
            <mxGeometry x="10" y="70" width="250" height="30" as="geometry" />
          </mxCell>
        </UserObject>
        <UserObject label="crm:P72_has_language aat:300387822" id="bgf9_nDrxLFxw-tNaPST-313">
          <mxCell style="points=[];html=1;shadow=1;perimeterSpacing=3;spacingLeft=10;spacingRight=10;allowArrows=1;rotatable=0;whiteSpace=wrap;fontSize=14;rounded=0;labelBackgroundColor=none;" parent="bgf9_nDrxLFxw-tNaPST-242" vertex="1">
            <mxGeometry x="10" y="180" width="270" height="30" as="geometry" />
          </mxCell>
        </UserObject>
        <UserObject label="rdfs:label &quot;Young Romance 26, Edited&quot;@en" id="bgf9_nDrxLFxw-tNaPST-314">
          <mxCell style="points=[];html=1;shadow=1;perimeterSpacing=3;spacingLeft=10;spacingRight=10;allowArrows=1;rotatable=0;whiteSpace=wrap;fontSize=14;rounded=0;labelBackgroundColor=none;" parent="bgf9_nDrxLFxw-tNaPST-242" vertex="1">
            <mxGeometry x="10" y="210" width="270" height="50" as="geometry" />
          </mxCell>
        </UserObject>
        <UserObject label="lrmoo:R17i_was_created_by" id="bgf9_nDrxLFxw-tNaPST-244">
          <mxCell style="html=1;edgeStyle=elbowEdgeStyle;rounded=0;orthogonalLoop=1;jettySize=auto;endArrow=block;endFill=1;endSize=5;spacingBottom=20;shadow=1;fontSize=14;labelBackgroundColor=default;fontColor=default;" parent="1" source="bgf9_nDrxLFxw-tNaPST-242" target="bgf9_nDrxLFxw-tNaPST-38" edge="1">
            <mxGeometry x="-0.5998" relative="1" as="geometry">
              <mxPoint x="-778.25" y="482" as="sourcePoint" />
              <mxPoint x="211.75" y="622" as="targetPoint" />
              <Array as="points">
                <mxPoint x="130" y="370" />
                <mxPoint x="124.75" y="372" />
              </Array>
              <mxPoint as="offset" />
            </mxGeometry>
          </mxCell>
        </UserObject>
        <UserObject label=":issue-publication" id="bgf9_nDrxLFxw-tNaPST-245">
          <mxCell style="swimlane;whiteSpace=wrap;collapsible=1;childLayout=stackLayout;swimlaneFillColor=default;resizeParent=1;resizeLast=0;resizeParentMax=0;marginBottom=10;marginTop=10;marginRight=10;marginLeft=10;spacingLeft=5;spacingRight=5;fontStyle=0;startSize=30;points=[];html=1;shadow=1;perimeterSpacing=3;spacingLeft=10;spacingRight=10;allowArrows=1;rotatable=0;whiteSpace=wrap;fontSize=14;horizontal=1;horizontalStack=0;labelBackgroundColor=none;fillColor=#F2DCF7;strokeColor=#36393d;" parent="1" vertex="1">
            <mxGeometry x="1390" y="850" width="290" height="140" as="geometry" />
          </mxCell>
        </UserObject>
        <UserObject label="a lrmoo:F30_Manifestation_Creation" id="bgf9_nDrxLFxw-tNaPST-246">
          <mxCell style="points=[];html=1;shadow=1;perimeterSpacing=3;spacingLeft=10;spacingRight=10;allowArrows=1;rotatable=0;whiteSpace=wrap;fontSize=14;labelBackgroundColor=none;" parent="bgf9_nDrxLFxw-tNaPST-245" vertex="1">
            <mxGeometry x="10" y="40" width="270" height="30" as="geometry" />
          </mxCell>
        </UserObject>
        <UserObject label="crm:P4_has_time-span :october-1950" id="bgf9_nDrxLFxw-tNaPST-248">
          <mxCell style="points=[];html=1;shadow=1;perimeterSpacing=3;spacingLeft=10;spacingRight=10;allowArrows=1;rotatable=0;whiteSpace=wrap;fontSize=14;labelBackgroundColor=none;" parent="bgf9_nDrxLFxw-tNaPST-245" vertex="1">
            <mxGeometry x="10" y="70" width="270" height="30" as="geometry" />
          </mxCell>
        </UserObject>
        <UserObject label="crm:P7_took_place_at gn:5110629" id="bgf9_nDrxLFxw-tNaPST-249">
          <mxCell style="points=[];html=1;shadow=1;perimeterSpacing=3;spacingLeft=10;spacingRight=10;allowArrows=1;rotatable=0;whiteSpace=wrap;fontSize=14;labelBackgroundColor=none;" parent="bgf9_nDrxLFxw-tNaPST-245" vertex="1">
            <mxGeometry x="10" y="100" width="270" height="30" as="geometry" />
          </mxCell>
        </UserObject>
        <UserObject label="crm:P14_carried_out_by" id="bgf9_nDrxLFxw-tNaPST-247">
          <mxCell style="html=1;edgeStyle=elbowEdgeStyle;rounded=0;orthogonalLoop=1;jettySize=auto;endArrow=block;endFill=1;endSize=5;spacingBottom=20;shadow=1;fontSize=14;labelBackgroundColor=none;fontColor=default;" parent="1" source="bgf9_nDrxLFxw-tNaPST-245" target="bgf9_nDrxLFxw-tNaPST-239" edge="1">
            <mxGeometry x="0.041" y="20" relative="1" as="geometry">
              <mxPoint x="1250" y="-550" as="sourcePoint" />
              <mxPoint x="1364" y="-550" as="targetPoint" />
              <Array as="points">
                <mxPoint x="1270" y="920" />
              </Array>
              <mxPoint as="offset" />
            </mxGeometry>
          </mxCell>
        </UserObject>
        <UserObject label=":lettering" id="bgf9_nDrxLFxw-tNaPST-252">
          <mxCell style="swimlane;whiteSpace=wrap;collapsible=1;childLayout=stackLayout;swimlaneFillColor=default;resizeParent=1;resizeLast=0;resizeParentMax=0;marginBottom=10;marginTop=10;marginRight=10;marginLeft=10;spacingLeft=5;spacingRight=5;fontStyle=0;startSize=30;points=[];html=1;shadow=1;perimeterSpacing=3;spacingLeft=10;spacingRight=10;allowArrows=1;rotatable=0;whiteSpace=wrap;fontSize=14;horizontal=1;horizontalStack=0;rounded=0;labelBackgroundColor=none;fillColor=#cce5ff;strokeColor=#36393d;" parent="1" vertex="1" collapsed="1">
            <mxGeometry x="1370" y="1140" width="130" height="30" as="geometry">
              <mxRectangle x="1370" y="840" width="270" height="120" as="alternateBounds" />
            </mxGeometry>
          </mxCell>
        </UserObject>
        <UserObject label="a crm:PC14_carried_out_by" id="bgf9_nDrxLFxw-tNaPST-253">
          <mxCell style="points=[];html=1;shadow=1;perimeterSpacing=3;spacingLeft=10;spacingRight=10;allowArrows=1;rotatable=0;whiteSpace=wrap;fontSize=14;rounded=0;labelBackgroundColor=none;" parent="bgf9_nDrxLFxw-tNaPST-252" vertex="1">
            <mxGeometry x="10" y="40" width="250" height="30" as="geometry" />
          </mxCell>
        </UserObject>
        <UserObject label="crm:P14.1_in_the_role_of aat:300025115" id="bgf9_nDrxLFxw-tNaPST-254">
          <mxCell style="points=[];html=1;shadow=1;perimeterSpacing=3;spacingLeft=10;spacingRight=10;allowArrows=1;rotatable=0;whiteSpace=wrap;fontSize=14;rounded=0;labelBackgroundColor=none;" parent="bgf9_nDrxLFxw-tNaPST-252" vertex="1">
            <mxGeometry x="10" y="70" width="250" height="40" as="geometry" />
          </mxCell>
        </UserObject>
        <UserObject label="crm:P02_has_range" id="bgf9_nDrxLFxw-tNaPST-255">
          <mxCell style="html=1;edgeStyle=elbowEdgeStyle;rounded=0;orthogonalLoop=1;jettySize=auto;endArrow=block;endFill=1;endSize=5;spacingBottom=20;shadow=1;fontSize=14;elbow=vertical;labelBackgroundColor=default;fontColor=default;entryX=0.498;entryY=-0.001;entryDx=0;entryDy=0;entryPerimeter=0;" parent="1" source="bgf9_nDrxLFxw-tNaPST-252" target="nKvTLelhxwqPHLfkCT0D-1" edge="1">
            <mxGeometry x="0.049" relative="1" as="geometry">
              <mxPoint x="1365" y="1315" as="sourcePoint" />
              <mxPoint x="1400" y="1295" as="targetPoint" />
              <Array as="points">
                <mxPoint x="1435" y="1220" />
              </Array>
              <mxPoint as="offset" />
            </mxGeometry>
          </mxCell>
        </UserObject>
        <UserObject label="crm:P01_has_domain" id="bgf9_nDrxLFxw-tNaPST-256">
          <mxCell style="html=1;edgeStyle=elbowEdgeStyle;rounded=0;orthogonalLoop=1;jettySize=auto;endArrow=block;endFill=1;endSize=5;spacingBottom=20;shadow=1;fontSize=14;elbow=vertical;labelBackgroundColor=default;fontColor=default;" parent="1" source="bgf9_nDrxLFxw-tNaPST-252" target="bgf9_nDrxLFxw-tNaPST-223" edge="1">
            <mxGeometry x="-0.8873" relative="1" as="geometry">
              <mxPoint x="740" y="512" as="sourcePoint" />
              <mxPoint x="970" y="650" as="targetPoint" />
              <Array as="points">
                <mxPoint x="1630" y="1030" />
              </Array>
              <mxPoint as="offset" />
            </mxGeometry>
          </mxCell>
        </UserObject>
        <UserObject label=":serial-creation" id="bgf9_nDrxLFxw-tNaPST-264">
          <mxCell style="swimlane;whiteSpace=wrap;collapsible=1;childLayout=stackLayout;swimlaneFillColor=default;resizeParent=1;resizeLast=0;resizeParentMax=0;marginBottom=10;marginTop=10;marginRight=10;marginLeft=10;spacingLeft=5;spacingRight=5;fontStyle=0;startSize=30;points=[];html=1;shadow=1;perimeterSpacing=3;spacingLeft=10;spacingRight=10;allowArrows=1;rotatable=0;whiteSpace=wrap;fontSize=14;horizontal=1;horizontalStack=0;labelBackgroundColor=none;fillColor=#F2DCF7;strokeColor=#36393d;" parent="1" vertex="1">
            <mxGeometry x="930" y="860" width="230" height="130" as="geometry" />
          </mxCell>
        </UserObject>
        <UserObject label="a lrmoo:F27_Work_Creation" id="bgf9_nDrxLFxw-tNaPST-265">
          <mxCell style="points=[];html=1;shadow=1;perimeterSpacing=3;spacingLeft=10;spacingRight=10;allowArrows=1;rotatable=0;whiteSpace=wrap;fontSize=14;labelBackgroundColor=none;" parent="bgf9_nDrxLFxw-tNaPST-264" vertex="1">
            <mxGeometry x="10" y="40" width="210" height="30" as="geometry" />
          </mxCell>
        </UserObject>
        <UserObject label="crm:P4_has_time-span :september-1947-june-1963" id="bgf9_nDrxLFxw-tNaPST-267">
          <mxCell style="points=[];html=1;shadow=1;perimeterSpacing=3;spacingLeft=10;spacingRight=10;allowArrows=1;rotatable=0;whiteSpace=wrap;fontSize=14;labelBackgroundColor=none;" parent="bgf9_nDrxLFxw-tNaPST-264" vertex="1">
            <mxGeometry x="10" y="70" width="210" height="50" as="geometry" />
          </mxCell>
        </UserObject>
        <UserObject label=":young-romance-26-w" id="bgf9_nDrxLFxw-tNaPST-268">
          <mxCell style="swimlane;whiteSpace=wrap;collapsible=1;childLayout=stackLayout;swimlaneFillColor=default;resizeParent=1;resizeLast=0;resizeParentMax=0;marginBottom=10;marginTop=10;marginRight=10;marginLeft=10;spacingLeft=5;spacingRight=5;fontStyle=0;startSize=30;points=[];html=1;shadow=1;perimeterSpacing=3;spacingLeft=10;spacingRight=10;allowArrows=1;rotatable=0;whiteSpace=wrap;fontSize=14;horizontal=1;horizontalStack=0;labelBackgroundColor=none;fillColor=#ffcc99;strokeColor=#36393d;" parent="1" vertex="1">
            <mxGeometry x="620" y="-620" width="290" height="110" as="geometry" />
          </mxCell>
        </UserObject>
        <UserObject label="a lrmoo:F1_Work" id="bgf9_nDrxLFxw-tNaPST-269">
          <mxCell style="points=[];html=1;shadow=1;perimeterSpacing=3;spacingLeft=10;spacingRight=10;allowArrows=1;rotatable=0;whiteSpace=wrap;fontSize=14;labelBackgroundColor=none;" parent="bgf9_nDrxLFxw-tNaPST-268" vertex="1">
            <mxGeometry x="10" y="40" width="270" height="30" as="geometry" />
          </mxCell>
        </UserObject>
        <UserObject label="rdfs:label &quot;Young Romance 26&quot;@en" id="bgf9_nDrxLFxw-tNaPST-448">
          <mxCell style="points=[];html=1;shadow=1;perimeterSpacing=3;spacingLeft=10;spacingRight=10;allowArrows=1;rotatable=0;whiteSpace=wrap;fontSize=14;labelBackgroundColor=none;" parent="bgf9_nDrxLFxw-tNaPST-268" vertex="1">
            <mxGeometry x="10" y="70" width="270" height="30" as="geometry" />
          </mxCell>
        </UserObject>
        <UserObject label=":young-romance-prize-sw" id="bgf9_nDrxLFxw-tNaPST-271">
          <mxCell style="swimlane;whiteSpace=wrap;collapsible=1;childLayout=stackLayout;swimlaneFillColor=default;resizeParent=1;resizeLast=0;resizeParentMax=0;marginBottom=10;marginTop=10;marginRight=10;marginLeft=10;spacingLeft=5;spacingRight=5;fontStyle=0;startSize=30;points=[];html=1;shadow=1;perimeterSpacing=3;spacingLeft=10;spacingRight=10;allowArrows=1;rotatable=0;whiteSpace=wrap;fontSize=14;horizontal=1;horizontalStack=0;labelBackgroundColor=none;fillColor=#ffcc99;strokeColor=#36393d;" parent="1" vertex="1">
            <mxGeometry x="230" y="535" width="290" height="240" as="geometry" />
          </mxCell>
        </UserObject>
        <UserObject label="a lrmoo:F18_Serial_Work" id="bgf9_nDrxLFxw-tNaPST-447">
          <mxCell style="points=[];html=1;shadow=1;perimeterSpacing=3;spacingLeft=10;spacingRight=10;allowArrows=1;rotatable=0;whiteSpace=wrap;fontSize=14;labelBackgroundColor=none;" parent="bgf9_nDrxLFxw-tNaPST-271" vertex="1">
            <mxGeometry x="10" y="40" width="270" height="30" as="geometry" />
          </mxCell>
        </UserObject>
        <UserObject label="crm:P2_has_type aat:300203177" id="bgf9_nDrxLFxw-tNaPST-272">
          <mxCell style="points=[];html=1;shadow=1;perimeterSpacing=3;spacingLeft=10;spacingRight=10;allowArrows=1;rotatable=0;whiteSpace=wrap;fontSize=14;labelBackgroundColor=none;" parent="bgf9_nDrxLFxw-tNaPST-271" vertex="1">
            <mxGeometry x="10" y="70" width="270" height="30" as="geometry" />
          </mxCell>
        </UserObject>
        <UserObject label="crm:P102_has_title" id="bgf9_nDrxLFxw-tNaPST-378">
          <mxCell style="swimlane;whiteSpace=wrap;collapsible=1;childLayout=stackLayout;swimlaneFillColor=default;resizeParent=1;resizeLast=0;resizeParentMax=0;marginBottom=10;marginTop=10;marginRight=10;marginLeft=10;spacingLeft=5;spacingRight=5;fontStyle=0;startSize=30;points=[];html=1;shadow=1;perimeterSpacing=3;spacingLeft=10;spacingRight=10;allowArrows=1;rotatable=0;whiteSpace=wrap;fontSize=14;horizontal=1;horizontalStack=0;labelBackgroundColor=none;" parent="bgf9_nDrxLFxw-tNaPST-271" vertex="1">
            <mxGeometry x="10" y="100" width="270" height="80" as="geometry">
              <mxRectangle x="10" y="640" width="270" height="30" as="alternateBounds" />
            </mxGeometry>
          </mxCell>
        </UserObject>
        <UserObject label=":young-romance-title" id="bgf9_nDrxLFxw-tNaPST-322">
          <mxCell style="swimlane;whiteSpace=wrap;collapsible=1;childLayout=stackLayout;swimlaneFillColor=default;resizeParent=1;resizeLast=0;resizeParentMax=0;marginBottom=10;marginTop=10;marginRight=10;marginLeft=10;spacingLeft=5;spacingRight=5;fontStyle=0;startSize=30;points=[];html=1;shadow=1;perimeterSpacing=3;spacingLeft=10;spacingRight=10;allowArrows=1;rotatable=0;whiteSpace=wrap;fontSize=14;horizontal=1;horizontalStack=0;labelBackgroundColor=none;" parent="bgf9_nDrxLFxw-tNaPST-378" vertex="1" collapsed="1">
            <mxGeometry x="10" y="40" width="250" height="30" as="geometry">
              <mxRectangle x="10" y="40" width="250" height="130" as="alternateBounds" />
            </mxGeometry>
          </mxCell>
        </UserObject>
        <UserObject label="a crm:E35_Title" id="bgf9_nDrxLFxw-tNaPST-323">
          <mxCell style="points=[];html=1;shadow=1;perimeterSpacing=3;spacingLeft=10;spacingRight=10;allowArrows=1;rotatable=0;whiteSpace=wrap;fontSize=14;labelBackgroundColor=none;" parent="bgf9_nDrxLFxw-tNaPST-322" vertex="1">
            <mxGeometry x="10" y="40" width="230" height="30" as="geometry" />
          </mxCell>
        </UserObject>
        <UserObject label="crm:P190_has_symbolic_content &quot;Young Romance&quot;@en" id="bgf9_nDrxLFxw-tNaPST-395">
          <mxCell style="points=[];html=1;shadow=1;perimeterSpacing=3;spacingLeft=10;spacingRight=10;allowArrows=1;rotatable=0;whiteSpace=wrap;fontSize=14;labelBackgroundColor=none;" parent="bgf9_nDrxLFxw-tNaPST-322" vertex="1">
            <mxGeometry x="10" y="70" width="230" height="50" as="geometry" />
          </mxCell>
        </UserObject>
        <UserObject label="rdfs:label &quot;Young Romance (Prize, 1947 Series)&quot;@en" id="bgf9_nDrxLFxw-tNaPST-411">
          <mxCell style="points=[];html=1;shadow=1;perimeterSpacing=3;spacingLeft=10;spacingRight=10;allowArrows=1;rotatable=0;whiteSpace=wrap;fontSize=14;labelBackgroundColor=none;" parent="bgf9_nDrxLFxw-tNaPST-271" vertex="1">
            <mxGeometry x="10" y="180" width="270" height="50" as="geometry" />
          </mxCell>
        </UserObject>
        <UserObject label="lrmoo:R16i_was_created_by" id="bgf9_nDrxLFxw-tNaPST-273">
          <mxCell style="html=1;edgeStyle=elbowEdgeStyle;rounded=0;orthogonalLoop=1;jettySize=auto;endArrow=block;endFill=1;endSize=5;spacingBottom=20;shadow=1;fontSize=14;labelBackgroundColor=default;fontColor=default;" parent="1" source="bgf9_nDrxLFxw-tNaPST-271" target="bgf9_nDrxLFxw-tNaPST-264" edge="1">
            <mxGeometry x="0.4559" relative="1" as="geometry">
              <mxPoint x="760" y="-354" as="sourcePoint" />
              <mxPoint x="560" y="750" as="targetPoint" />
              <Array as="points">
                <mxPoint x="1045" y="710" />
              </Array>
              <mxPoint as="offset" />
            </mxGeometry>
          </mxCell>
        </UserObject>
        <UserObject label="&lt;span style=&quot;color: transparent;&quot;&gt;crm:P14_carried_out_by&lt;/span&gt;" id="bgf9_nDrxLFxw-tNaPST-274">
          <mxCell style="html=1;edgeStyle=elbowEdgeStyle;rounded=0;orthogonalLoop=1;jettySize=auto;endArrow=block;endFill=1;endSize=5;spacingBottom=20;shadow=1;fontSize=14;labelBackgroundColor=none;fontColor=default;" parent="1" source="bgf9_nDrxLFxw-tNaPST-264" target="bgf9_nDrxLFxw-tNaPST-239" edge="1">
            <mxGeometry x="-0.315" y="-30" relative="1" as="geometry">
              <mxPoint x="1042.67" y="-296" as="sourcePoint" />
              <mxPoint x="1042.67" y="-520" as="targetPoint" />
              <Array as="points">
                <mxPoint x="1270" y="920" />
              </Array>
              <mxPoint x="-30" y="30" as="offset" />
            </mxGeometry>
          </mxCell>
        </UserObject>
        <UserObject label=":young-romance-26-cover-e" id="bgf9_nDrxLFxw-tNaPST-289">
          <mxCell style="swimlane;whiteSpace=wrap;collapsible=1;childLayout=stackLayout;swimlaneFillColor=default;resizeParent=1;resizeLast=0;resizeParentMax=0;marginBottom=10;marginTop=10;marginRight=10;marginLeft=10;spacingLeft=5;spacingRight=5;fontStyle=0;startSize=30;points=[];html=1;shadow=1;perimeterSpacing=3;spacingLeft=10;spacingRight=10;allowArrows=1;rotatable=0;whiteSpace=wrap;fontSize=14;horizontal=1;horizontalStack=0;rounded=0;labelBackgroundColor=none;fillColor=#FFE599;strokeColor=#36393d;" parent="1" vertex="1">
            <mxGeometry x="1330" y="-300" width="290" height="130" as="geometry" />
          </mxCell>
        </UserObject>
        <UserObject label="a lrmoo:F2_Expression" id="bgf9_nDrxLFxw-tNaPST-290">
          <mxCell style="points=[];html=1;shadow=1;perimeterSpacing=3;spacingLeft=10;spacingRight=10;allowArrows=1;rotatable=0;whiteSpace=wrap;fontSize=14;rounded=0;labelBackgroundColor=none;" parent="bgf9_nDrxLFxw-tNaPST-289" vertex="1">
            <mxGeometry x="10" y="40" width="270" height="30" as="geometry" />
          </mxCell>
        </UserObject>
        <UserObject label="rdfs:label &quot;Cover of Young Romance 26&quot;@en" id="bgf9_nDrxLFxw-tNaPST-293">
          <mxCell style="points=[];html=1;shadow=1;perimeterSpacing=3;spacingLeft=10;spacingRight=10;allowArrows=1;rotatable=0;whiteSpace=wrap;fontSize=14;rounded=0;labelBackgroundColor=none;" parent="bgf9_nDrxLFxw-tNaPST-289" vertex="1">
            <mxGeometry x="10" y="70" width="270" height="50" as="geometry" />
          </mxCell>
        </UserObject>
        <UserObject label="lrmoo:R75_incorporates" id="bgf9_nDrxLFxw-tNaPST-296">
          <mxCell style="html=1;edgeStyle=elbowEdgeStyle;rounded=0;orthogonalLoop=1;jettySize=auto;endArrow=block;endFill=1;endSize=5;spacingBottom=20;shadow=1;fontSize=14;labelBackgroundColor=default;fontColor=default;" parent="1" source="bgf9_nDrxLFxw-tNaPST-242" target="bgf9_nDrxLFxw-tNaPST-289" edge="1">
            <mxGeometry relative="1" as="geometry">
              <mxPoint x="680" y="220" as="sourcePoint" />
              <mxPoint x="794" y="220" as="targetPoint" />
            </mxGeometry>
          </mxCell>
        </UserObject>
        <UserObject label="lrmoo:R4i_is_embodied_in" id="bgf9_nDrxLFxw-tNaPST-299">
          <mxCell style="html=1;edgeStyle=elbowEdgeStyle;rounded=0;orthogonalLoop=1;jettySize=auto;endArrow=block;endFill=1;endSize=5;spacingBottom=20;shadow=1;fontSize=14;labelBackgroundColor=default;fontColor=default;" parent="1" source="bgf9_nDrxLFxw-tNaPST-242" target="bgf9_nDrxLFxw-tNaPST-297" edge="1">
            <mxGeometry relative="1" as="geometry">
              <mxPoint x="200" y="50" as="sourcePoint" />
              <mxPoint x="314" y="50" as="targetPoint" />
            </mxGeometry>
          </mxCell>
        </UserObject>
        <UserObject label="crm:P67i_is_referred_to_by" id="bgf9_nDrxLFxw-tNaPST-73">
          <mxCell style="html=1;edgeStyle=elbowEdgeStyle;rounded=0;orthogonalLoop=1;jettySize=auto;endArrow=block;endFill=1;endSize=5;spacingBottom=20;shadow=1;fontSize=14;labelBackgroundColor=default;fontColor=default;" parent="1" source="bgf9_nDrxLFxw-tNaPST-32" target="bgf9_nDrxLFxw-tNaPST-59" edge="1">
            <mxGeometry x="0.4704" relative="1" as="geometry">
              <mxPoint x="915" y="1960" as="sourcePoint" />
              <mxPoint x="915" y="2101" as="targetPoint" />
              <Array as="points">
                <mxPoint x="640" y="1590" />
              </Array>
              <mxPoint y="-1" as="offset" />
            </mxGeometry>
          </mxCell>
        </UserObject>
        <UserObject label="lrmoo:R3_is_realised_in" id="bgf9_nDrxLFxw-tNaPST-398">
          <mxCell style="html=1;edgeStyle=elbowEdgeStyle;rounded=0;orthogonalLoop=1;jettySize=auto;endArrow=block;endFill=1;endSize=5;spacingBottom=20;shadow=1;fontSize=14;labelBackgroundColor=default;fontColor=default;" parent="1" source="bgf9_nDrxLFxw-tNaPST-268" target="bgf9_nDrxLFxw-tNaPST-242" edge="1">
            <mxGeometry relative="1" as="geometry">
              <mxPoint x="800" y="-370" as="sourcePoint" />
              <mxPoint x="914" y="-370" as="targetPoint" />
            </mxGeometry>
          </mxCell>
        </UserObject>
        <UserObject label="lrmoo:R3_is_realised_in" id="bgf9_nDrxLFxw-tNaPST-399">
          <mxCell style="html=1;edgeStyle=elbowEdgeStyle;rounded=0;orthogonalLoop=1;jettySize=auto;endArrow=block;endFill=1;endSize=5;spacingBottom=20;shadow=1;fontSize=14;labelBackgroundColor=default;fontColor=default;" parent="1" source="bgf9_nDrxLFxw-tNaPST-231" target="bgf9_nDrxLFxw-tNaPST-289" edge="1">
            <mxGeometry relative="1" as="geometry">
              <mxPoint x="1480.29" y="-420" as="sourcePoint" />
              <mxPoint x="1480.29" y="-246" as="targetPoint" />
              <Array as="points">
                <mxPoint x="1480" y="-250" />
              </Array>
            </mxGeometry>
          </mxCell>
        </UserObject>
        <UserObject label=":jack-kirby-death" id="bgf9_nDrxLFxw-tNaPST-187">
          <mxCell style="swimlane;whiteSpace=wrap;collapsible=1;childLayout=stackLayout;swimlaneFillColor=default;resizeParent=1;resizeLast=0;resizeParentMax=0;marginBottom=10;marginTop=10;marginRight=10;marginLeft=10;spacingLeft=5;spacingRight=5;fontStyle=0;startSize=30;points=[];html=1;shadow=1;perimeterSpacing=3;spacingLeft=10;spacingRight=10;allowArrows=1;rotatable=0;whiteSpace=wrap;fontSize=14;horizontal=1;horizontalStack=0;labelBackgroundColor=none;rounded=0;fillColor=#F2DCF7;strokeColor=#36393d;" parent="1" vertex="1" collapsed="1">
            <mxGeometry x="375" y="1490" width="150" height="30" as="geometry">
              <mxRectangle x="375" y="1190" width="280" height="140" as="alternateBounds" />
            </mxGeometry>
          </mxCell>
        </UserObject>
        <UserObject label="a crm:E69_Death" id="bgf9_nDrxLFxw-tNaPST-188">
          <mxCell style="points=[];html=1;shadow=1;perimeterSpacing=3;spacingLeft=10;spacingRight=10;allowArrows=1;rotatable=0;whiteSpace=wrap;fontSize=14;labelBackgroundColor=none;rounded=0;" parent="bgf9_nDrxLFxw-tNaPST-187" vertex="1">
            <mxGeometry x="10" y="40" width="260" height="30" as="geometry" />
          </mxCell>
        </UserObject>
        <UserObject label="crm:P4_has_time-span :1994-02-06" id="bgf9_nDrxLFxw-tNaPST-189">
          <mxCell style="points=[];html=1;shadow=1;perimeterSpacing=3;spacingLeft=10;spacingRight=10;allowArrows=1;rotatable=0;whiteSpace=wrap;fontSize=14;labelBackgroundColor=none;rounded=0;" parent="bgf9_nDrxLFxw-tNaPST-187" vertex="1">
            <mxGeometry x="10" y="70" width="260" height="30" as="geometry" />
          </mxCell>
        </UserObject>
        <UserObject label="crm:P7_took_place_at gn:5402405" id="bgf9_nDrxLFxw-tNaPST-190">
          <mxCell style="points=[];html=1;shadow=1;perimeterSpacing=3;spacingLeft=10;spacingRight=10;allowArrows=1;rotatable=0;whiteSpace=wrap;fontSize=14;labelBackgroundColor=none;rounded=0;" parent="bgf9_nDrxLFxw-tNaPST-187" vertex="1">
            <mxGeometry x="10" y="100" width="260" height="30" as="geometry" />
          </mxCell>
        </UserObject>
        <UserObject label="lrmoo:R10_is_member_of" id="bgf9_nDrxLFxw-tNaPST-401">
          <mxCell style="html=1;edgeStyle=elbowEdgeStyle;rounded=0;orthogonalLoop=1;jettySize=auto;endArrow=block;endFill=1;endSize=5;spacingBottom=20;shadow=1;fontSize=14;labelBackgroundColor=default;fontColor=default;" parent="1" source="bgf9_nDrxLFxw-tNaPST-268" target="bgf9_nDrxLFxw-tNaPST-264" edge="1">
            <mxGeometry x="-0.7277" relative="1" as="geometry">
              <mxPoint x="300" y="-621" as="sourcePoint" />
              <mxPoint x="540" y="790.1111111111111" as="targetPoint" />
              <Array as="points">
                <mxPoint x="60" y="890" />
                <mxPoint x="110" y="359" />
              </Array>
              <mxPoint as="offset" />
            </mxGeometry>
          </mxCell>
        </UserObject>
        <UserObject label=":young-romance-dc-sw" id="bgf9_nDrxLFxw-tNaPST-402">
          <mxCell style="swimlane;whiteSpace=wrap;collapsible=1;childLayout=stackLayout;swimlaneFillColor=default;resizeParent=1;resizeLast=0;resizeParentMax=0;marginBottom=10;marginTop=10;marginRight=10;marginLeft=10;spacingLeft=5;spacingRight=5;fontStyle=0;startSize=30;points=[];html=1;shadow=1;perimeterSpacing=3;spacingLeft=10;spacingRight=10;allowArrows=1;rotatable=0;whiteSpace=wrap;fontSize=14;horizontal=1;horizontalStack=0;labelBackgroundColor=none;fillColor=#ffcc99;strokeColor=#36393d;" parent="1" vertex="1">
            <mxGeometry x="230" y="220" width="290" height="130" as="geometry" />
          </mxCell>
        </UserObject>
        <UserObject label="a lrmoo:F18_Serial_Work" id="bgf9_nDrxLFxw-tNaPST-403">
          <mxCell style="points=[];html=1;shadow=1;perimeterSpacing=3;spacingLeft=10;spacingRight=10;allowArrows=1;rotatable=0;whiteSpace=wrap;fontSize=14;labelBackgroundColor=none;" parent="bgf9_nDrxLFxw-tNaPST-402" vertex="1">
            <mxGeometry x="10" y="40" width="270" height="30" as="geometry" />
          </mxCell>
        </UserObject>
        <UserObject label="rdfs:label &quot;Young Romance (DC, 1963 Series)&quot;@en" id="bgf9_nDrxLFxw-tNaPST-405">
          <mxCell style="points=[];html=1;shadow=1;perimeterSpacing=3;spacingLeft=10;spacingRight=10;allowArrows=1;rotatable=0;whiteSpace=wrap;fontSize=14;labelBackgroundColor=none;" parent="bgf9_nDrxLFxw-tNaPST-402" vertex="1">
            <mxGeometry x="10" y="70" width="270" height="50" as="geometry" />
          </mxCell>
        </UserObject>
        <UserObject label="lrmoo:R1i_has_successor" id="bgf9_nDrxLFxw-tNaPST-415">
          <mxCell style="html=1;edgeStyle=elbowEdgeStyle;rounded=0;orthogonalLoop=1;jettySize=auto;endArrow=block;endFill=1;endSize=5;spacingBottom=20;shadow=1;fontSize=14;labelBackgroundColor=default;fontColor=default;" parent="1" source="bgf9_nDrxLFxw-tNaPST-271" target="bgf9_nDrxLFxw-tNaPST-402" edge="1">
            <mxGeometry relative="1" as="geometry">
              <mxPoint x="980" y="400" as="sourcePoint" />
              <mxPoint x="1094" y="400" as="targetPoint" />
              <mxPoint as="offset" />
            </mxGeometry>
          </mxCell>
        </UserObject>
        <UserObject label=":editorial-policy" id="bgf9_nDrxLFxw-tNaPST-433">
          <mxCell style="swimlane;whiteSpace=wrap;collapsible=1;childLayout=stackLayout;swimlaneFillColor=default;resizeParent=1;resizeLast=0;resizeParentMax=0;marginBottom=10;marginTop=10;marginRight=10;marginLeft=10;spacingLeft=5;spacingRight=5;fontStyle=0;startSize=30;points=[];html=1;shadow=1;perimeterSpacing=3;spacingLeft=10;spacingRight=10;allowArrows=1;rotatable=0;whiteSpace=wrap;fontSize=14;horizontal=1;horizontalStack=0;labelBackgroundColor=none;fillColor=#f9f7ed;strokeColor=#36393d;" parent="1" vertex="1">
            <mxGeometry x="1480" y="520" width="280" height="190" as="geometry" />
          </mxCell>
        </UserObject>
        <UserObject label="a crm:E29_Design_or_Procedure" id="bgf9_nDrxLFxw-tNaPST-434">
          <mxCell style="points=[];html=1;shadow=1;perimeterSpacing=3;spacingLeft=10;spacingRight=10;allowArrows=1;rotatable=0;whiteSpace=wrap;fontSize=14;labelBackgroundColor=none;" parent="bgf9_nDrxLFxw-tNaPST-433" vertex="1">
            <mxGeometry x="10" y="40" width="260" height="30" as="geometry" />
          </mxCell>
        </UserObject>
        <UserObject label="crm:P68_foresees_use_of" id="bgf9_nDrxLFxw-tNaPST-442">
          <mxCell style="swimlane;whiteSpace=wrap;collapsible=1;childLayout=stackLayout;swimlaneFillColor=default;resizeParent=1;resizeLast=0;resizeParentMax=0;marginBottom=10;marginTop=10;marginRight=10;marginLeft=10;spacingLeft=5;spacingRight=5;fontStyle=0;startSize=30;points=[];html=1;shadow=1;perimeterSpacing=3;spacingLeft=10;spacingRight=10;allowArrows=1;rotatable=0;whiteSpace=wrap;fontSize=14;horizontal=1;horizontalStack=0;labelBackgroundColor=none;" parent="bgf9_nDrxLFxw-tNaPST-433" vertex="1">
            <mxGeometry x="10" y="70" width="260" height="110" as="geometry" />
          </mxCell>
        </UserObject>
        <UserObject label="aat:300014137" id="bgf9_nDrxLFxw-tNaPST-443">
          <mxCell style="points=[];html=1;shadow=1;perimeterSpacing=3;spacingLeft=10;spacingRight=10;allowArrows=1;rotatable=0;whiteSpace=wrap;fontSize=14;labelBackgroundColor=none;" parent="bgf9_nDrxLFxw-tNaPST-442" vertex="1">
            <mxGeometry x="10" y="40" width="240" height="30" as="geometry" />
          </mxCell>
        </UserObject>
        <UserObject label="aat:300312356" id="bgf9_nDrxLFxw-tNaPST-444">
          <mxCell style="points=[];html=1;shadow=1;perimeterSpacing=3;spacingLeft=10;spacingRight=10;allowArrows=1;rotatable=0;whiteSpace=wrap;fontSize=14;labelBackgroundColor=none;" parent="bgf9_nDrxLFxw-tNaPST-442" vertex="1">
            <mxGeometry x="10" y="70" width="240" height="30" as="geometry" />
          </mxCell>
        </UserObject>
        <UserObject label="lrmoo:R11_has_issuing_rule" id="bgf9_nDrxLFxw-tNaPST-435">
          <mxCell style="html=1;edgeStyle=elbowEdgeStyle;rounded=0;orthogonalLoop=1;jettySize=auto;endArrow=block;endFill=1;endSize=5;spacingBottom=20;shadow=1;fontSize=14;labelBackgroundColor=default;fontColor=default;" parent="1" source="bgf9_nDrxLFxw-tNaPST-271" target="bgf9_nDrxLFxw-tNaPST-433" edge="1">
            <mxGeometry x="0.0318" relative="1" as="geometry">
              <mxPoint x="1770" y="640" as="sourcePoint" />
              <mxPoint x="2061" y="635" as="targetPoint" />
              <mxPoint as="offset" />
              <Array as="points">
                <mxPoint x="1000" y="615" />
              </Array>
            </mxGeometry>
          </mxCell>
        </UserObject>
        <UserObject label="lrmoo:R24i_was_created_through" id="bgf9_nDrxLFxw-tNaPST-446">
          <mxCell style="html=1;edgeStyle=elbowEdgeStyle;rounded=0;orthogonalLoop=1;jettySize=auto;endArrow=block;endFill=1;endSize=5;spacingBottom=20;shadow=1;fontSize=14;labelBackgroundColor=default;fontColor=default;" parent="1" source="bgf9_nDrxLFxw-tNaPST-297" target="bgf9_nDrxLFxw-tNaPST-245" edge="1">
            <mxGeometry x="-0.0256" relative="1" as="geometry">
              <mxPoint x="910" y="300" as="sourcePoint" />
              <mxPoint x="1214" y="290" as="targetPoint" />
              <Array as="points">
                <mxPoint x="1820" y="880" />
              </Array>
              <mxPoint as="offset" />
            </mxGeometry>
          </mxCell>
        </UserObject>
        <UserObject label=":young-romance-26-m" id="bgf9_nDrxLFxw-tNaPST-297">
          <mxCell style="swimlane;whiteSpace=wrap;collapsible=1;childLayout=stackLayout;swimlaneFillColor=default;resizeParent=1;resizeLast=0;resizeParentMax=0;marginBottom=10;marginTop=10;marginRight=10;marginLeft=10;spacingLeft=5;spacingRight=5;fontStyle=0;startSize=30;points=[];html=1;shadow=1;perimeterSpacing=3;spacingLeft=10;spacingRight=10;allowArrows=1;rotatable=0;whiteSpace=wrap;fontSize=14;horizontal=1;horizontalStack=0;labelBackgroundColor=none;fillColor=#cdeb8b;strokeColor=#36393d;" parent="1" vertex="1">
            <mxGeometry x="620" y="40" width="290" height="410" as="geometry" />
          </mxCell>
        </UserObject>
        <UserObject label="a lrmoo:F3_Manifestation" id="bgf9_nDrxLFxw-tNaPST-298">
          <mxCell style="points=[];html=1;shadow=1;perimeterSpacing=3;spacingLeft=10;spacingRight=10;allowArrows=1;rotatable=0;whiteSpace=wrap;fontSize=14;labelBackgroundColor=none;" parent="bgf9_nDrxLFxw-tNaPST-297" vertex="1">
            <mxGeometry x="10" y="40" width="270" height="30" as="geometry" />
          </mxCell>
        </UserObject>
        <UserObject label="crm:P2_has_type aat:300311879" id="bgf9_nDrxLFxw-tNaPST-430">
          <mxCell style="points=[];html=1;shadow=1;perimeterSpacing=3;spacingLeft=10;spacingRight=10;allowArrows=1;rotatable=0;whiteSpace=wrap;fontSize=14;labelBackgroundColor=none;" parent="bgf9_nDrxLFxw-tNaPST-297" vertex="1">
            <mxGeometry x="10" y="70" width="270" height="30" as="geometry" />
          </mxCell>
        </UserObject>
        <UserObject label="crm:P1_is_identified_by" id="bgf9_nDrxLFxw-tNaPST-373">
          <mxCell style="swimlane;whiteSpace=wrap;collapsible=1;childLayout=stackLayout;swimlaneFillColor=default;resizeParent=1;resizeLast=0;resizeParentMax=0;marginBottom=10;marginTop=10;marginRight=10;marginLeft=10;spacingLeft=5;spacingRight=5;fontStyle=0;startSize=30;points=[];html=1;shadow=1;perimeterSpacing=3;spacingLeft=10;spacingRight=10;allowArrows=1;rotatable=0;whiteSpace=wrap;fontSize=14;horizontal=1;horizontalStack=0;labelBackgroundColor=none;" parent="bgf9_nDrxLFxw-tNaPST-297" vertex="1">
            <mxGeometry x="10" y="100" width="270" height="110" as="geometry">
              <mxRectangle x="10" y="330" width="250" height="30" as="alternateBounds" />
            </mxGeometry>
          </mxCell>
        </UserObject>
        <UserObject label=":vol-4-no-2" id="bgf9_nDrxLFxw-tNaPST-279">
          <mxCell style="swimlane;whiteSpace=wrap;collapsible=1;childLayout=stackLayout;swimlaneFillColor=default;resizeParent=1;resizeLast=0;resizeParentMax=0;marginBottom=10;marginTop=10;marginRight=10;marginLeft=10;spacingLeft=5;spacingRight=5;fontStyle=0;startSize=30;points=[];html=1;shadow=1;perimeterSpacing=3;spacingLeft=10;spacingRight=10;allowArrows=1;rotatable=0;whiteSpace=wrap;fontSize=14;horizontal=1;horizontalStack=0;labelBackgroundColor=none;" parent="bgf9_nDrxLFxw-tNaPST-373" vertex="1" collapsed="1">
            <mxGeometry x="10" y="40" width="250" height="30" as="geometry">
              <mxRectangle x="10" y="40" width="250" height="130" as="alternateBounds" />
            </mxGeometry>
          </mxCell>
        </UserObject>
        <UserObject label="a crm:E41_Appellation" id="bgf9_nDrxLFxw-tNaPST-280">
          <mxCell style="points=[];html=1;shadow=1;perimeterSpacing=3;spacingLeft=10;spacingRight=10;allowArrows=1;rotatable=0;whiteSpace=wrap;fontSize=14;labelBackgroundColor=none;" parent="bgf9_nDrxLFxw-tNaPST-279" vertex="1">
            <mxGeometry x="10" y="40" width="230" height="30" as="geometry" />
          </mxCell>
        </UserObject>
        <UserObject label="crm:P190_has_symbolic_content &quot;VOL. 4, NO. 2.&quot;" id="bgf9_nDrxLFxw-tNaPST-286">
          <mxCell style="points=[];html=1;shadow=1;perimeterSpacing=3;spacingLeft=10;spacingRight=10;allowArrows=1;rotatable=0;whiteSpace=wrap;fontSize=14;labelBackgroundColor=none;" parent="bgf9_nDrxLFxw-tNaPST-279" vertex="1">
            <mxGeometry x="10" y="70" width="230" height="50" as="geometry" />
          </mxCell>
        </UserObject>
        <UserObject label=":no-26" id="bgf9_nDrxLFxw-tNaPST-257">
          <mxCell style="swimlane;whiteSpace=wrap;collapsible=1;childLayout=stackLayout;swimlaneFillColor=default;resizeParent=1;resizeLast=0;resizeParentMax=0;marginBottom=10;marginTop=10;marginRight=10;marginLeft=10;spacingLeft=5;spacingRight=5;fontStyle=0;startSize=30;points=[];html=1;shadow=1;perimeterSpacing=3;spacingLeft=10;spacingRight=10;allowArrows=1;rotatable=0;whiteSpace=wrap;fontSize=14;horizontal=1;horizontalStack=0;labelBackgroundColor=none;" parent="bgf9_nDrxLFxw-tNaPST-373" vertex="1" collapsed="1">
            <mxGeometry x="10" y="70" width="250" height="30" as="geometry">
              <mxRectangle x="10" y="170" width="250" height="130" as="alternateBounds" />
            </mxGeometry>
          </mxCell>
        </UserObject>
        <UserObject label="a crm:E41_Appellation" id="bgf9_nDrxLFxw-tNaPST-258">
          <mxCell style="points=[];html=1;shadow=1;perimeterSpacing=3;spacingLeft=10;spacingRight=10;allowArrows=1;rotatable=0;whiteSpace=wrap;fontSize=14;labelBackgroundColor=none;" parent="bgf9_nDrxLFxw-tNaPST-257" vertex="1">
            <mxGeometry x="10" y="40" width="230" height="30" as="geometry" />
          </mxCell>
        </UserObject>
        <UserObject label="crm:P190_has_symbolic_content &quot;NO. 26&quot;" id="bgf9_nDrxLFxw-tNaPST-261">
          <mxCell style="points=[];html=1;shadow=1;perimeterSpacing=3;spacingLeft=10;spacingRight=10;allowArrows=1;rotatable=0;whiteSpace=wrap;fontSize=14;labelBackgroundColor=none;" parent="bgf9_nDrxLFxw-tNaPST-257" vertex="1">
            <mxGeometry x="10" y="70" width="230" height="50" as="geometry" />
          </mxCell>
        </UserObject>
        <UserObject label="lrmoo:R70_has_dimension" id="bgf9_nDrxLFxw-tNaPST-364">
          <mxCell style="swimlane;whiteSpace=wrap;collapsible=1;childLayout=stackLayout;swimlaneFillColor=default;resizeParent=1;resizeLast=0;resizeParentMax=0;marginBottom=10;marginTop=10;marginRight=10;marginLeft=10;spacingLeft=5;spacingRight=5;fontStyle=0;startSize=30;points=[];html=1;shadow=1;perimeterSpacing=3;spacingLeft=10;spacingRight=10;allowArrows=1;rotatable=0;whiteSpace=wrap;fontSize=14;horizontal=1;horizontalStack=0;labelBackgroundColor=none;" parent="bgf9_nDrxLFxw-tNaPST-297" vertex="1">
            <mxGeometry x="10" y="210" width="270" height="140" as="geometry">
              <mxRectangle x="10" y="120" width="250" height="30" as="alternateBounds" />
            </mxGeometry>
          </mxCell>
        </UserObject>
        <UserObject label=":standard-golden-age-us" id="bgf9_nDrxLFxw-tNaPST-275">
          <mxCell style="swimlane;whiteSpace=wrap;collapsible=1;childLayout=stackLayout;swimlaneFillColor=default;resizeParent=1;resizeLast=0;resizeParentMax=0;marginBottom=10;marginTop=10;marginRight=10;marginLeft=10;spacingLeft=5;spacingRight=5;fontStyle=0;startSize=30;points=[];html=1;shadow=1;perimeterSpacing=3;spacingLeft=10;spacingRight=10;allowArrows=1;rotatable=0;whiteSpace=wrap;fontSize=14;horizontal=1;horizontalStack=0;labelBackgroundColor=none;" parent="bgf9_nDrxLFxw-tNaPST-364" vertex="1" collapsed="1">
            <mxGeometry x="10" y="40" width="250" height="30" as="geometry">
              <mxRectangle x="10" y="40" width="250" height="160" as="alternateBounds" />
            </mxGeometry>
          </mxCell>
        </UserObject>
        <UserObject label="a crm:E54_Dimension" id="bgf9_nDrxLFxw-tNaPST-276">
          <mxCell style="points=[];html=1;shadow=1;perimeterSpacing=3;spacingLeft=10;spacingRight=10;allowArrows=1;rotatable=0;whiteSpace=wrap;fontSize=14;labelBackgroundColor=none;" parent="bgf9_nDrxLFxw-tNaPST-275" vertex="1">
            <mxGeometry x="10" y="40" width="230" height="30" as="geometry" />
          </mxCell>
        </UserObject>
        <UserObject label="crm:P91_has_unit aat:300379100" id="bgf9_nDrxLFxw-tNaPST-277">
          <mxCell style="points=[];html=1;shadow=1;perimeterSpacing=3;spacingLeft=10;spacingRight=10;allowArrows=1;rotatable=0;whiteSpace=wrap;fontSize=14;labelBackgroundColor=none;" parent="bgf9_nDrxLFxw-tNaPST-275" vertex="1">
            <mxGeometry x="10" y="70" width="230" height="40" as="geometry" />
          </mxCell>
        </UserObject>
        <UserObject label="crm:P90_has_value &quot;7.75 x 10.5&quot;" id="bgf9_nDrxLFxw-tNaPST-278">
          <mxCell style="points=[];html=1;shadow=1;perimeterSpacing=3;spacingLeft=10;spacingRight=10;allowArrows=1;rotatable=0;whiteSpace=wrap;fontSize=14;labelBackgroundColor=none;" parent="bgf9_nDrxLFxw-tNaPST-275" vertex="1">
            <mxGeometry x="10" y="110" width="230" height="40" as="geometry" />
          </mxCell>
        </UserObject>
        <UserObject label=":52-pages" id="bgf9_nDrxLFxw-tNaPST-320">
          <mxCell style="swimlane;whiteSpace=wrap;collapsible=1;childLayout=stackLayout;swimlaneFillColor=default;resizeParent=1;resizeLast=0;resizeParentMax=0;marginBottom=10;marginTop=10;marginRight=10;marginLeft=10;spacingLeft=5;spacingRight=5;fontStyle=0;startSize=30;points=[];html=1;shadow=1;perimeterSpacing=3;spacingLeft=10;spacingRight=10;allowArrows=1;rotatable=0;whiteSpace=wrap;fontSize=14;horizontal=1;horizontalStack=0;labelBackgroundColor=none;" parent="bgf9_nDrxLFxw-tNaPST-364" vertex="1" collapsed="1">
            <mxGeometry x="10" y="70" width="250" height="30" as="geometry">
              <mxRectangle x="10" y="70" width="250" height="150" as="alternateBounds" />
            </mxGeometry>
          </mxCell>
        </UserObject>
        <UserObject label="a crm:E54_Dimension" id="bgf9_nDrxLFxw-tNaPST-321">
          <mxCell style="points=[];html=1;shadow=1;perimeterSpacing=3;spacingLeft=10;spacingRight=10;allowArrows=1;rotatable=0;whiteSpace=wrap;fontSize=14;labelBackgroundColor=none;" parent="bgf9_nDrxLFxw-tNaPST-320" vertex="1">
            <mxGeometry x="10" y="40" width="230" height="30" as="geometry" />
          </mxCell>
        </UserObject>
        <UserObject label="crm:P91_has_unit aat:300194222" id="bgf9_nDrxLFxw-tNaPST-388">
          <mxCell style="points=[];html=1;shadow=1;perimeterSpacing=3;spacingLeft=10;spacingRight=10;allowArrows=1;rotatable=0;whiteSpace=wrap;fontSize=14;labelBackgroundColor=none;" parent="bgf9_nDrxLFxw-tNaPST-320" vertex="1">
            <mxGeometry x="10" y="70" width="230" height="40" as="geometry" />
          </mxCell>
        </UserObject>
        <UserObject label="crm:P90_has_value 52" id="bgf9_nDrxLFxw-tNaPST-390">
          <mxCell style="points=[];html=1;shadow=1;perimeterSpacing=3;spacingLeft=10;spacingRight=10;allowArrows=1;rotatable=0;whiteSpace=wrap;fontSize=14;labelBackgroundColor=none;" parent="bgf9_nDrxLFxw-tNaPST-320" vertex="1">
            <mxGeometry x="10" y="110" width="230" height="30" as="geometry" />
          </mxCell>
        </UserObject>
        <UserObject label=":10-c" id="bgf9_nDrxLFxw-tNaPST-318">
          <mxCell style="swimlane;whiteSpace=wrap;collapsible=1;childLayout=stackLayout;swimlaneFillColor=default;resizeParent=1;resizeLast=0;resizeParentMax=0;marginBottom=10;marginTop=10;marginRight=10;marginLeft=10;spacingLeft=5;spacingRight=5;fontStyle=0;startSize=30;points=[];html=1;shadow=1;perimeterSpacing=3;spacingLeft=10;spacingRight=10;allowArrows=1;rotatable=0;whiteSpace=wrap;fontSize=14;horizontal=1;horizontalStack=0;labelBackgroundColor=none;" parent="bgf9_nDrxLFxw-tNaPST-364" vertex="1" collapsed="1">
            <mxGeometry x="10" y="100" width="250" height="30" as="geometry">
              <mxRectangle x="10" y="100" width="250" height="150" as="alternateBounds" />
            </mxGeometry>
          </mxCell>
        </UserObject>
        <UserObject label="a crm:E97_Monetary_Amount" id="bgf9_nDrxLFxw-tNaPST-319">
          <mxCell style="points=[];html=1;shadow=1;perimeterSpacing=3;spacingLeft=10;spacingRight=10;allowArrows=1;rotatable=0;whiteSpace=wrap;fontSize=14;labelBackgroundColor=none;" parent="bgf9_nDrxLFxw-tNaPST-318" vertex="1">
            <mxGeometry x="10" y="40" width="230" height="30" as="geometry" />
          </mxCell>
        </UserObject>
        <UserObject label="crm:P91_has_unit aat:300411994" id="bgf9_nDrxLFxw-tNaPST-391">
          <mxCell style="points=[];html=1;shadow=1;perimeterSpacing=3;spacingLeft=10;spacingRight=10;allowArrows=1;rotatable=0;whiteSpace=wrap;fontSize=14;labelBackgroundColor=none;" parent="bgf9_nDrxLFxw-tNaPST-318" vertex="1">
            <mxGeometry x="10" y="70" width="230" height="40" as="geometry" />
          </mxCell>
        </UserObject>
        <UserObject label="crm:P90_has_value 0.1" id="bgf9_nDrxLFxw-tNaPST-392">
          <mxCell style="points=[];html=1;shadow=1;perimeterSpacing=3;spacingLeft=10;spacingRight=10;allowArrows=1;rotatable=0;whiteSpace=wrap;fontSize=14;labelBackgroundColor=none;" parent="bgf9_nDrxLFxw-tNaPST-318" vertex="1">
            <mxGeometry x="10" y="110" width="230" height="30" as="geometry" />
          </mxCell>
        </UserObject>
        <UserObject label="rdfs:label &quot;Young Romance 26, October 1950&quot;@en" id="bgf9_nDrxLFxw-tNaPST-429">
          <mxCell style="points=[];html=1;shadow=1;perimeterSpacing=3;spacingLeft=10;spacingRight=10;allowArrows=1;rotatable=0;whiteSpace=wrap;fontSize=14;labelBackgroundColor=none;" parent="bgf9_nDrxLFxw-tNaPST-297" vertex="1">
            <mxGeometry x="10" y="350" width="270" height="50" as="geometry" />
          </mxCell>
        </UserObject>
        <UserObject id="bgf9_nDrxLFxw-tNaPST-462">
          <mxCell style="swimlane;whiteSpace=wrap;collapsible=1;childLayout=stackLayout;swimlaneFillColor=default;resizeParent=1;resizeLast=0;resizeParentMax=0;marginBottom=10;marginTop=10;marginRight=10;marginLeft=10;spacingLeft=5;spacingRight=5;fontStyle=0;startSize=0;points=[];html=1;shadow=1;perimeterSpacing=3;spacingLeft=10;spacingRight=10;allowArrows=1;rotatable=0;whiteSpace=wrap;fontSize=14;horizontalStack=0;" parent="1" vertex="1">
            <mxGeometry x="1720" y="1640" width="290" height="260" as="geometry" />
          </mxCell>
        </UserObject>
        <UserObject label=":1913-10-11" id="bgf9_nDrxLFxw-tNaPST-453">
          <mxCell style="swimlane;whiteSpace=wrap;collapsible=1;childLayout=stackLayout;swimlaneFillColor=default;resizeParent=1;resizeLast=0;resizeParentMax=0;marginBottom=10;marginTop=10;marginRight=10;marginLeft=10;spacingLeft=5;spacingRight=5;fontStyle=0;startSize=30;points=[];html=1;shadow=1;perimeterSpacing=3;spacingLeft=10;spacingRight=10;allowArrows=1;rotatable=0;whiteSpace=wrap;fontSize=14;horizontal=1;horizontalStack=0;" parent="bgf9_nDrxLFxw-tNaPST-462" vertex="1" collapsed="1">
            <mxGeometry x="10" y="10" width="270" height="30" as="geometry">
              <mxRectangle x="10" y="10" width="270" height="130" as="alternateBounds" />
            </mxGeometry>
          </mxCell>
        </UserObject>
        <UserObject label="a crm:E52_Time-Span" id="bgf9_nDrxLFxw-tNaPST-454">
          <mxCell style="points=[];html=1;shadow=1;perimeterSpacing=3;spacingLeft=10;spacingRight=10;allowArrows=1;rotatable=0;whiteSpace=wrap;fontSize=14;" parent="bgf9_nDrxLFxw-tNaPST-453" vertex="1">
            <mxGeometry x="10" y="40" width="250" height="30" as="geometry" />
          </mxCell>
        </UserObject>
        <UserObject label="crm:P82_at_some_time_within &quot;1913-10-11T00:00:00&quot;^^xsd:dateTime" id="bgf9_nDrxLFxw-tNaPST-455">
          <mxCell style="points=[];html=1;shadow=1;perimeterSpacing=3;spacingLeft=10;spacingRight=10;allowArrows=1;rotatable=0;whiteSpace=wrap;fontSize=14;" parent="bgf9_nDrxLFxw-tNaPST-453" vertex="1">
            <mxGeometry x="10" y="70" width="250" height="50" as="geometry" />
          </mxCell>
        </UserObject>
        <UserObject label=":1915-12-21" id="bgf9_nDrxLFxw-tNaPST-456">
          <mxCell style="swimlane;whiteSpace=wrap;collapsible=1;childLayout=stackLayout;swimlaneFillColor=default;resizeParent=1;resizeLast=0;resizeParentMax=0;marginBottom=10;marginTop=10;marginRight=10;marginLeft=10;spacingLeft=5;spacingRight=5;fontStyle=0;startSize=30;points=[];html=1;shadow=1;perimeterSpacing=3;spacingLeft=10;spacingRight=10;allowArrows=1;rotatable=0;whiteSpace=wrap;fontSize=14;horizontal=1;horizontalStack=0;" parent="bgf9_nDrxLFxw-tNaPST-462" vertex="1" collapsed="1">
            <mxGeometry x="10" y="40" width="270" height="30" as="geometry">
              <mxRectangle x="10" y="40" width="270" height="130" as="alternateBounds" />
            </mxGeometry>
          </mxCell>
        </UserObject>
        <UserObject label="a crm:E52_Time-Span" id="bgf9_nDrxLFxw-tNaPST-457">
          <mxCell style="points=[];html=1;shadow=1;perimeterSpacing=3;spacingLeft=10;spacingRight=10;allowArrows=1;rotatable=0;whiteSpace=wrap;fontSize=14;" parent="bgf9_nDrxLFxw-tNaPST-456" vertex="1">
            <mxGeometry x="10" y="40" width="250" height="30" as="geometry" />
          </mxCell>
        </UserObject>
        <UserObject label="crm:P82_at_some_time_within &quot;1915-12-21T00:00:00&quot;^^xsd:dateTime" id="bgf9_nDrxLFxw-tNaPST-458">
          <mxCell style="points=[];html=1;shadow=1;perimeterSpacing=3;spacingLeft=10;spacingRight=10;allowArrows=1;rotatable=0;whiteSpace=wrap;fontSize=14;" parent="bgf9_nDrxLFxw-tNaPST-456" vertex="1">
            <mxGeometry x="10" y="70" width="250" height="50" as="geometry" />
          </mxCell>
        </UserObject>
        <UserObject label=":1917-08-28" id="bgf9_nDrxLFxw-tNaPST-459">
          <mxCell style="swimlane;whiteSpace=wrap;collapsible=1;childLayout=stackLayout;swimlaneFillColor=default;resizeParent=1;resizeLast=0;resizeParentMax=0;marginBottom=10;marginTop=10;marginRight=10;marginLeft=10;spacingLeft=5;spacingRight=5;fontStyle=0;startSize=30;points=[];html=1;shadow=1;perimeterSpacing=3;spacingLeft=10;spacingRight=10;allowArrows=1;rotatable=0;whiteSpace=wrap;fontSize=14;horizontal=1;horizontalStack=0;" parent="bgf9_nDrxLFxw-tNaPST-462" vertex="1" collapsed="1">
            <mxGeometry x="10" y="70" width="270" height="30" as="geometry">
              <mxRectangle x="10" y="70" width="270" height="130" as="alternateBounds" />
            </mxGeometry>
          </mxCell>
        </UserObject>
        <UserObject label="a crm:E52_Time-Span" id="bgf9_nDrxLFxw-tNaPST-460">
          <mxCell style="points=[];html=1;shadow=1;perimeterSpacing=3;spacingLeft=10;spacingRight=10;allowArrows=1;rotatable=0;whiteSpace=wrap;fontSize=14;" parent="bgf9_nDrxLFxw-tNaPST-459" vertex="1">
            <mxGeometry x="10" y="40" width="250" height="30" as="geometry" />
          </mxCell>
        </UserObject>
        <UserObject label="crm:P82_at_some_time_within &quot;1917-08-28T00:00:00&quot;^^xsd:dateTime" id="bgf9_nDrxLFxw-tNaPST-461">
          <mxCell style="points=[];html=1;shadow=1;perimeterSpacing=3;spacingLeft=10;spacingRight=10;allowArrows=1;rotatable=0;whiteSpace=wrap;fontSize=14;" parent="bgf9_nDrxLFxw-tNaPST-459" vertex="1">
            <mxGeometry x="10" y="70" width="250" height="50" as="geometry" />
          </mxCell>
        </UserObject>
        <UserObject label=":september-1947-june-1963" id="bgf9_nDrxLFxw-tNaPST-474">
          <mxCell style="swimlane;whiteSpace=wrap;collapsible=1;childLayout=stackLayout;swimlaneFillColor=default;resizeParent=1;resizeLast=0;resizeParentMax=0;marginBottom=10;marginTop=10;marginRight=10;marginLeft=10;spacingLeft=5;spacingRight=5;fontStyle=0;startSize=30;points=[];html=1;shadow=1;perimeterSpacing=3;spacingLeft=10;spacingRight=10;allowArrows=1;rotatable=0;whiteSpace=wrap;fontSize=14;horizontal=1;horizontalStack=0;" parent="bgf9_nDrxLFxw-tNaPST-462" vertex="1" collapsed="1">
            <mxGeometry x="10" y="100" width="270" height="30" as="geometry">
              <mxRectangle x="10" y="100" width="270" height="180" as="alternateBounds" />
            </mxGeometry>
          </mxCell>
        </UserObject>
        <UserObject label="a crm:E52_Time-Span" id="bgf9_nDrxLFxw-tNaPST-475">
          <mxCell style="points=[];html=1;shadow=1;perimeterSpacing=3;spacingLeft=10;spacingRight=10;allowArrows=1;rotatable=0;whiteSpace=wrap;fontSize=14;" parent="bgf9_nDrxLFxw-tNaPST-474" vertex="1">
            <mxGeometry x="10" y="40" width="250" height="30" as="geometry" />
          </mxCell>
        </UserObject>
        <UserObject label="crm:P82a_begin_of_the_begin &quot;1947-09-01T00:00:00&quot;^^xsd:dateTime" id="bgf9_nDrxLFxw-tNaPST-476">
          <mxCell style="points=[];html=1;shadow=1;perimeterSpacing=3;spacingLeft=10;spacingRight=10;allowArrows=1;rotatable=0;whiteSpace=wrap;fontSize=14;" parent="bgf9_nDrxLFxw-tNaPST-474" vertex="1">
            <mxGeometry x="10" y="70" width="250" height="50" as="geometry" />
          </mxCell>
        </UserObject>
        <UserObject label="crm:P82b_end_of_the_end &quot;1963-06-30T23:59:59&quot;^^xsd:dateTime" id="bgf9_nDrxLFxw-tNaPST-480">
          <mxCell style="points=[];html=1;shadow=1;perimeterSpacing=3;spacingLeft=10;spacingRight=10;allowArrows=1;rotatable=0;whiteSpace=wrap;fontSize=14;" parent="bgf9_nDrxLFxw-tNaPST-474" vertex="1">
            <mxGeometry x="10" y="120" width="250" height="50" as="geometry" />
          </mxCell>
        </UserObject>
        <UserObject label=":october-1950" id="bgf9_nDrxLFxw-tNaPST-477">
          <mxCell style="swimlane;whiteSpace=wrap;collapsible=1;childLayout=stackLayout;swimlaneFillColor=default;resizeParent=1;resizeLast=0;resizeParentMax=0;marginBottom=10;marginTop=10;marginRight=10;marginLeft=10;spacingLeft=5;spacingRight=5;fontStyle=0;startSize=30;points=[];html=1;shadow=1;perimeterSpacing=3;spacingLeft=10;spacingRight=10;allowArrows=1;rotatable=0;whiteSpace=wrap;fontSize=14;horizontal=1;horizontalStack=0;" parent="bgf9_nDrxLFxw-tNaPST-462" vertex="1" collapsed="1">
            <mxGeometry x="10" y="130" width="270" height="30" as="geometry">
              <mxRectangle x="10" y="130" width="270" height="130" as="alternateBounds" />
            </mxGeometry>
          </mxCell>
        </UserObject>
        <UserObject label="a crm:E52_Time-Span" id="bgf9_nDrxLFxw-tNaPST-478">
          <mxCell style="points=[];html=1;shadow=1;perimeterSpacing=3;spacingLeft=10;spacingRight=10;allowArrows=1;rotatable=0;whiteSpace=wrap;fontSize=14;" parent="bgf9_nDrxLFxw-tNaPST-477" vertex="1">
            <mxGeometry x="10" y="40" width="250" height="30" as="geometry" />
          </mxCell>
        </UserObject>
        <UserObject label="crm:P82_at_some_time_within &quot;1950-10-01T00:00:00&quot;^^xsd:dateTime" id="bgf9_nDrxLFxw-tNaPST-479">
          <mxCell style="points=[];html=1;shadow=1;perimeterSpacing=3;spacingLeft=10;spacingRight=10;allowArrows=1;rotatable=0;whiteSpace=wrap;fontSize=14;" parent="bgf9_nDrxLFxw-tNaPST-477" vertex="1">
            <mxGeometry x="10" y="70" width="250" height="50" as="geometry" />
          </mxCell>
        </UserObject>
        <UserObject label=":1984-11-28" id="bgf9_nDrxLFxw-tNaPST-465">
          <mxCell style="swimlane;whiteSpace=wrap;collapsible=1;childLayout=stackLayout;swimlaneFillColor=default;resizeParent=1;resizeLast=0;resizeParentMax=0;marginBottom=10;marginTop=10;marginRight=10;marginLeft=10;spacingLeft=5;spacingRight=5;fontStyle=0;startSize=30;points=[];html=1;shadow=1;perimeterSpacing=3;spacingLeft=10;spacingRight=10;allowArrows=1;rotatable=0;whiteSpace=wrap;fontSize=14;horizontal=1;horizontalStack=0;" parent="bgf9_nDrxLFxw-tNaPST-462" vertex="1" collapsed="1">
            <mxGeometry x="10" y="160" width="270" height="30" as="geometry">
              <mxRectangle x="10" y="160" width="270" height="130" as="alternateBounds" />
            </mxGeometry>
          </mxCell>
        </UserObject>
        <UserObject label="a crm:E52_Time-Span" id="bgf9_nDrxLFxw-tNaPST-466">
          <mxCell style="points=[];html=1;shadow=1;perimeterSpacing=3;spacingLeft=10;spacingRight=10;allowArrows=1;rotatable=0;whiteSpace=wrap;fontSize=14;" parent="bgf9_nDrxLFxw-tNaPST-465" vertex="1">
            <mxGeometry x="10" y="40" width="250" height="30" as="geometry" />
          </mxCell>
        </UserObject>
        <UserObject label="crm:P82_at_some_time_within &quot;1984-11-28T00:00:00&quot;^^xsd:dateTime" id="bgf9_nDrxLFxw-tNaPST-467">
          <mxCell style="points=[];html=1;shadow=1;perimeterSpacing=3;spacingLeft=10;spacingRight=10;allowArrows=1;rotatable=0;whiteSpace=wrap;fontSize=14;" parent="bgf9_nDrxLFxw-tNaPST-465" vertex="1">
            <mxGeometry x="10" y="70" width="250" height="50" as="geometry" />
          </mxCell>
        </UserObject>
        <UserObject label=":1994-02-06" id="bgf9_nDrxLFxw-tNaPST-468">
          <mxCell style="swimlane;whiteSpace=wrap;collapsible=1;childLayout=stackLayout;swimlaneFillColor=default;resizeParent=1;resizeLast=0;resizeParentMax=0;marginBottom=10;marginTop=10;marginRight=10;marginLeft=10;spacingLeft=5;spacingRight=5;fontStyle=0;startSize=30;points=[];html=1;shadow=1;perimeterSpacing=3;spacingLeft=10;spacingRight=10;allowArrows=1;rotatable=0;whiteSpace=wrap;fontSize=14;horizontal=1;horizontalStack=0;" parent="bgf9_nDrxLFxw-tNaPST-462" vertex="1" collapsed="1">
            <mxGeometry x="10" y="190" width="270" height="30" as="geometry">
              <mxRectangle x="10" y="190" width="270" height="130" as="alternateBounds" />
            </mxGeometry>
          </mxCell>
        </UserObject>
        <UserObject label="a crm:E52_Time-Span" id="bgf9_nDrxLFxw-tNaPST-469">
          <mxCell style="points=[];html=1;shadow=1;perimeterSpacing=3;spacingLeft=10;spacingRight=10;allowArrows=1;rotatable=0;whiteSpace=wrap;fontSize=14;" parent="bgf9_nDrxLFxw-tNaPST-468" vertex="1">
            <mxGeometry x="10" y="40" width="250" height="30" as="geometry" />
          </mxCell>
        </UserObject>
        <UserObject label="crm:P82_at_some_time_within &quot;1994-02-06T00:00:00&quot;^^xsd:dateTime" id="bgf9_nDrxLFxw-tNaPST-470">
          <mxCell style="points=[];html=1;shadow=1;perimeterSpacing=3;spacingLeft=10;spacingRight=10;allowArrows=1;rotatable=0;whiteSpace=wrap;fontSize=14;" parent="bgf9_nDrxLFxw-tNaPST-468" vertex="1">
            <mxGeometry x="10" y="70" width="250" height="50" as="geometry" />
          </mxCell>
        </UserObject>
        <UserObject label=":2011-12-14" id="bgf9_nDrxLFxw-tNaPST-471">
          <mxCell style="swimlane;whiteSpace=wrap;collapsible=1;childLayout=stackLayout;swimlaneFillColor=default;resizeParent=1;resizeLast=0;resizeParentMax=0;marginBottom=10;marginTop=10;marginRight=10;marginLeft=10;spacingLeft=5;spacingRight=5;fontStyle=0;startSize=30;points=[];html=1;shadow=1;perimeterSpacing=3;spacingLeft=10;spacingRight=10;allowArrows=1;rotatable=0;whiteSpace=wrap;fontSize=14;horizontal=1;horizontalStack=0;" parent="bgf9_nDrxLFxw-tNaPST-462" vertex="1" collapsed="1">
            <mxGeometry x="10" y="220" width="270" height="30" as="geometry">
              <mxRectangle x="10" y="220" width="270" height="130" as="alternateBounds" />
            </mxGeometry>
          </mxCell>
        </UserObject>
        <UserObject label="a crm:E52_Time-Span" id="bgf9_nDrxLFxw-tNaPST-472">
          <mxCell style="points=[];html=1;shadow=1;perimeterSpacing=3;spacingLeft=10;spacingRight=10;allowArrows=1;rotatable=0;whiteSpace=wrap;fontSize=14;" parent="bgf9_nDrxLFxw-tNaPST-471" vertex="1">
            <mxGeometry x="10" y="40" width="250" height="30" as="geometry" />
          </mxCell>
        </UserObject>
        <UserObject label="crm:P82_at_some_time_within &quot;2011-12-14T00:00:00&quot;^^xsd:dateTime" id="bgf9_nDrxLFxw-tNaPST-473">
          <mxCell style="points=[];html=1;shadow=1;perimeterSpacing=3;spacingLeft=10;spacingRight=10;allowArrows=1;rotatable=0;whiteSpace=wrap;fontSize=14;" parent="bgf9_nDrxLFxw-tNaPST-471" vertex="1">
            <mxGeometry x="10" y="70" width="250" height="50" as="geometry" />
          </mxCell>
        </UserObject>
        <UserObject label="@base &amp;lt;https://f3mf.github.io/gdo/test-cidoc#&amp;gt; .&lt;br&gt;@prefix : &amp;lt;https://f3mf.github.io/gdo/test-cidoc#&amp;gt; .&lt;br&gt;@prefix rdfs: &amp;lt;http://www.w3.org/2000/01/rdf-schema#&amp;gt; .&lt;br&gt;@prefix xsd: &amp;lt;http://www.w3.org/2001/XMLSchema#&amp;gt; .&lt;br&gt;@prefix dc: &amp;lt;http://purl.org/dc/elements/1.1/&amp;gt; .&lt;br&gt;@prefix crm: &amp;lt;http://www.cidoc-crm.org/cidoc-crm/&amp;gt; .&lt;br&gt;@prefix lrmoo: &amp;lt;http://iflastandards.info/ns/lrm/lrmoo/&amp;gt; .&lt;br&gt;@prefix aat: &amp;lt;http://vocab.getty.edu/aat/&amp;gt; .&lt;br&gt;@prefix gn: &amp;lt;https://sws.geonames.org/&amp;gt; ." id="nQiFhsCHwTTgCgY5ScOq-1">
          <mxCell style="points=[];html=1;shadow=1;perimeterSpacing=3;spacingLeft=10;spacingRight=10;allowArrows=0;rotatable=0;whiteSpace=wrap;fontSize=14;labelBackgroundColor=none;rounded=0;" parent="1" vertex="1">
            <mxGeometry x="60" y="-880" width="410" height="200" as="geometry" />
          </mxCell>
        </UserObject>
        <UserObject label="&amp;lt;&amp;gt;" id="nQiFhsCHwTTgCgY5ScOq-4">
          <mxCell style="swimlane;whiteSpace=wrap;collapsible=1;childLayout=stackLayout;swimlaneFillColor=default;resizeParent=1;resizeLast=0;resizeParentMax=0;marginBottom=10;marginTop=10;marginRight=10;marginLeft=10;spacingLeft=5;spacingRight=5;fontStyle=0;startSize=30;points=[];html=1;shadow=1;perimeterSpacing=3;spacingLeft=10;spacingRight=10;allowArrows=1;rotatable=0;whiteSpace=wrap;fontSize=14;horizontal=1;horizontalStack=0;" parent="1" vertex="1">
            <mxGeometry x="1640" y="-880" width="370" height="230" as="geometry" />
          </mxCell>
        </UserObject>
        <UserObject label="dc:title&quot;Describing Periodicals with LRMoo&quot;@en" id="nQiFhsCHwTTgCgY5ScOq-5">
          <mxCell style="points=[];html=1;shadow=1;perimeterSpacing=3;spacingLeft=10;spacingRight=10;allowArrows=1;rotatable=0;whiteSpace=wrap;fontSize=14;" parent="nQiFhsCHwTTgCgY5ScOq-4" vertex="1">
            <mxGeometry x="10" y="40" width="350" height="30" as="geometry" />
          </mxCell>
        </UserObject>
        <UserObject label="dc:description &quot;A test of the descriptive capabilities of the CIDOC-CRM ecosystem, taking as a case study the perusal of a periodical, the most complex publication to model within LRM.&quot;@en" id="fKTsXs0xW84MQul5cC7V-3">
          <mxCell style="points=[];html=1;shadow=1;perimeterSpacing=3;spacingLeft=10;spacingRight=10;allowArrows=1;rotatable=0;whiteSpace=wrap;fontSize=14;" parent="nQiFhsCHwTTgCgY5ScOq-4" vertex="1">
            <mxGeometry x="10" y="70" width="350" height="90" as="geometry" />
          </mxCell>
        </UserObject>
        <UserObject label="dc:creator &quot;Francesca Massarenti&quot;" id="fKTsXs0xW84MQul5cC7V-1">
          <mxCell style="points=[];html=1;shadow=1;perimeterSpacing=3;spacingLeft=10;spacingRight=10;allowArrows=1;rotatable=0;whiteSpace=wrap;fontSize=14;" parent="nQiFhsCHwTTgCgY5ScOq-4" vertex="1">
            <mxGeometry x="10" y="160" width="350" height="30" as="geometry" />
          </mxCell>
        </UserObject>
        <UserObject label="dc:date &quot;2025-01-09&quot;" id="fKTsXs0xW84MQul5cC7V-2">
          <mxCell style="points=[];html=1;shadow=1;perimeterSpacing=3;spacingLeft=10;spacingRight=10;allowArrows=1;rotatable=0;whiteSpace=wrap;fontSize=14;" parent="nQiFhsCHwTTgCgY5ScOq-4" vertex="1">
            <mxGeometry x="10" y="190" width="350" height="30" as="geometry" />
          </mxCell>
        </UserObject>
      </root>
    </mxGraphModel>
  </diagram>
</mxfile>
